<?xml version="1.0" standalone="no"?>
<!DOCTYPE svg PUBLIC "-//W3C//DTD SVG 1.1//EN" "http://www.w3.org/Graphics/SVG/1.1/DTD/svg11.dtd" >
<svg xmlns="http://www.w3.org/2000/svg">
<metadata></metadata>
<defs>
<font id="dover_led_v2regular" horiz-adv-x="1534" >
<font-face units-per-em="2048" ascent="1638" descent="-410" />
<missing-glyph horiz-adv-x="512" />
<glyph horiz-adv-x="0" />
<glyph horiz-adv-x="682" />
<glyph unicode=" "  horiz-adv-x="512" />
<glyph unicode="&#x09;" horiz-adv-x="512" />
<glyph unicode="&#xa0;" horiz-adv-x="512" />
<glyph unicode="!" horiz-adv-x="1022" d="M536 128q0 42 30 72t74 30q42 0 72 -30t30 -72q0 -44 -30 -74t-72 -30q-44 0 -74 30t-30 74zM536 640q0 42 30 72t74 30q42 0 72 -30t30 -72q0 -44 -30 -74t-72 -30q-44 0 -74 30t-30 74zM536 896q0 42 30 72t74 30q42 0 72 -30t30 -72q0 -44 -30 -74t-72 -30 q-44 0 -74 30t-30 74zM536 1152q0 42 30 72t74 30q42 0 72 -30t30 -72q0 -44 -30 -74t-72 -30q-44 0 -74 30t-30 74zM536 1408q0 42 30 72t74 30q42 0 72 -30t30 -72q0 -44 -30 -74t-72 -30q-44 0 -74 30t-30 74z" />
<glyph unicode="&#x22;" horiz-adv-x="1790" d="M280 640q0 42 30 72t74 30q42 0 72 -30t30 -72q0 -44 -30 -74t-72 -30q-44 0 -74 30t-30 74zM536 896q0 42 30 72t74 30q42 0 72 -30t30 -72q0 -44 -30 -74t-72 -30q-44 0 -74 30t-30 74zM1048 640q0 42 30 72t74 30q42 0 72 -30t30 -72q0 -44 -30 -74t-72 -30 q-44 0 -74 30t-30 74zM1304 896q0 42 30 72t74 30q42 0 72 -30t30 -72q0 -44 -30 -74t-72 -30q-44 0 -74 30t-30 74z" />
<glyph unicode="#" horiz-adv-x="1790" d="M24 640q0 42 30 72t74 30q42 0 72 -30t30 -72q0 -44 -30 -74t-72 -30q-44 0 -74 30t-30 74zM24 1152q0 42 30 72t74 30q42 0 72 -30t30 -72q0 -44 -30 -74t-72 -30q-44 0 -74 30t-30 74zM280 128q0 42 30 72t74 30q42 0 72 -30t30 -72q0 -44 -30 -74t-72 -30 q-44 0 -74 30t-30 74zM280 384q0 42 30 72t74 30q42 0 72 -30t30 -72q0 -44 -30 -74t-72 -30q-44 0 -74 30t-30 74zM280 640q0 42 30 72t74 30q42 0 72 -30t30 -72q0 -44 -30 -74t-72 -30q-44 0 -74 30t-30 74zM280 896q0 42 30 72t74 30q42 0 72 -30t30 -72q0 -44 -30 -74 t-72 -30q-44 0 -74 30t-30 74zM280 1152q0 42 30 72t74 30q42 0 72 -30t30 -72q0 -44 -30 -74t-72 -30q-44 0 -74 30t-30 74zM280 1408q0 42 30 72t74 30q42 0 72 -30t30 -72q0 -44 -30 -74t-72 -30q-44 0 -74 30t-30 74zM280 1664q0 42 30 72t74 30q42 0 72 -30t30 -72 q0 -44 -30 -74t-72 -30q-44 0 -74 30t-30 74zM536 640q0 42 30 72t74 30q42 0 72 -30t30 -72q0 -44 -30 -74t-72 -30q-44 0 -74 30t-30 74zM536 1152q0 42 30 72t74 30q42 0 72 -30t30 -72q0 -44 -30 -74t-72 -30q-44 0 -74 30t-30 74zM792 640q0 42 30 72t74 30 q42 0 72 -30t30 -72q0 -44 -30 -74t-72 -30q-44 0 -74 30t-30 74zM792 1152q0 42 30 72t74 30q42 0 72 -30t30 -72q0 -44 -30 -74t-72 -30q-44 0 -74 30t-30 74zM1048 128q0 42 30 72t74 30q42 0 72 -30t30 -72q0 -44 -30 -74t-72 -30q-44 0 -74 30t-30 74zM1048 384 q0 42 30 72t74 30q42 0 72 -30t30 -72q0 -44 -30 -74t-72 -30q-44 0 -74 30t-30 74zM1048 640q0 42 30 72t74 30q42 0 72 -30t30 -72q0 -44 -30 -74t-72 -30q-44 0 -74 30t-30 74zM1048 896q0 42 30 72t74 30q42 0 72 -30t30 -72q0 -44 -30 -74t-72 -30q-44 0 -74 30t-30 74 zM1048 1152q0 42 30 72t74 30q42 0 72 -30t30 -72q0 -44 -30 -74t-72 -30q-44 0 -74 30t-30 74zM1048 1408q0 42 30 72t74 30q42 0 72 -30t30 -72q0 -44 -30 -74t-72 -30q-44 0 -74 30t-30 74zM1048 1664q0 42 30 72t74 30q42 0 72 -30t30 -72q0 -44 -30 -74t-72 -30 q-44 0 -74 30t-30 74zM1304 640q0 42 30 72t74 30q42 0 72 -30t30 -72q0 -44 -30 -74t-72 -30q-44 0 -74 30t-30 74zM1304 1152q0 42 30 72t74 30q42 0 72 -30t30 -72q0 -44 -30 -74t-72 -30q-44 0 -74 30t-30 74z" />
<glyph unicode="$" d="M24 384q0 42 30 72t74 30q42 0 72 -30t30 -72q0 -44 -30 -74t-72 -30q-44 0 -74 30t-30 74zM24 1152q0 42 30 72t74 30q42 0 72 -30t30 -72q0 -44 -30 -74t-72 -30q-44 0 -74 30t-30 74zM24 1408q0 42 30 72t74 30q42 0 72 -30t30 -72q0 -44 -30 -74t-72 -30 q-44 0 -74 30t-30 74zM280 128q0 42 30 72t74 30q42 0 72 -30t30 -72q0 -44 -30 -74t-72 -30q-44 0 -74 30t-30 74zM280 896q0 42 30 72t74 30q42 0 72 -30t30 -72q0 -44 -30 -74t-72 -30q-44 0 -74 30t-30 74zM280 1664q0 42 30 72t74 30q42 0 72 -30t30 -72q0 -44 -30 -74 t-72 -30q-44 0 -74 30t-30 74zM536 128q0 42 30 72t74 30q42 0 72 -30t30 -72q0 -44 -30 -74t-72 -30q-44 0 -74 30t-30 74zM536 384q0 42 30 72t74 30q42 0 72 -30t30 -72q0 -44 -30 -74t-72 -30q-44 0 -74 30t-30 74zM536 640q0 42 30 72t74 30q42 0 72 -30t30 -72 q0 -44 -30 -74t-72 -30q-44 0 -74 30t-30 74zM536 896q0 42 30 72t74 30q42 0 72 -30t30 -72q0 -44 -30 -74t-72 -30q-44 0 -74 30t-30 74zM536 1152q0 42 30 72t74 30q42 0 72 -30t30 -72q0 -44 -30 -74t-72 -30q-44 0 -74 30t-30 74zM536 1408q0 42 30 72t74 30 q42 0 72 -30t30 -72q0 -44 -30 -74t-72 -30q-44 0 -74 30t-30 74zM536 1664q0 42 30 72t74 30q42 0 72 -30t30 -72q0 -44 -30 -74t-72 -30q-44 0 -74 30t-30 74zM536 1920q0 42 30 72t74 30q42 0 72 -30t30 -72q0 -44 -30 -74t-72 -30q-44 0 -74 30t-30 74zM792 128 q0 42 30 72t74 30q42 0 72 -30t30 -72q0 -44 -30 -74t-72 -30q-44 0 -74 30t-30 74zM792 896q0 42 30 72t74 30q42 0 72 -30t30 -72q0 -44 -30 -74t-72 -30q-44 0 -74 30t-30 74zM792 1664q0 42 30 72t74 30q42 0 72 -30t30 -72q0 -44 -30 -74t-72 -30q-44 0 -74 30t-30 74z M1048 384q0 42 30 72t74 30q42 0 72 -30t30 -72q0 -44 -30 -74t-72 -30q-44 0 -74 30t-30 74zM1048 640q0 42 30 72t74 30q42 0 72 -30t30 -72q0 -44 -30 -74t-72 -30q-44 0 -74 30t-30 74zM1048 1408q0 42 30 72t74 30q42 0 72 -30t30 -72q0 -44 -30 -74t-72 -30 q-44 0 -74 30t-30 74z" />
<glyph unicode="%" horiz-adv-x="2046" d="M24 128q0 42 30 72t74 30q42 0 72 -30t30 -72q0 -44 -30 -74t-72 -30q-44 0 -74 30t-30 74zM24 1408q0 42 30 72t74 30q42 0 72 -30t30 -72q0 -44 -30 -74t-72 -30q-44 0 -74 30t-30 74zM280 384q0 42 30 72t74 30q42 0 72 -30t30 -72q0 -44 -30 -74t-72 -30 q-44 0 -74 30t-30 74zM280 1152q0 42 30 72t74 30q42 0 72 -30t30 -72q0 -44 -30 -74t-72 -30q-44 0 -74 30t-30 74zM280 1664q0 42 30 72t74 30q42 0 72 -30t30 -72q0 -44 -30 -74t-72 -30q-44 0 -74 30t-30 74zM536 640q0 42 30 72t74 30q42 0 72 -30t30 -72 q0 -44 -30 -74t-72 -30q-44 0 -74 30t-30 74zM536 1408q0 42 30 72t74 30q42 0 72 -30t30 -72q0 -44 -30 -74t-72 -30q-44 0 -74 30t-30 74zM792 896q0 42 30 72t74 30q42 0 72 -30t30 -72q0 -44 -30 -74t-72 -30q-44 0 -74 30t-30 74zM1048 384q0 42 30 72t74 30 q42 0 72 -30t30 -72q0 -44 -30 -74t-72 -30q-44 0 -74 30t-30 74zM1048 1152q0 42 30 72t74 30q42 0 72 -30t30 -72q0 -44 -30 -74t-72 -30q-44 0 -74 30t-30 74zM1304 128q0 42 30 72t74 30q42 0 72 -30t30 -72q0 -44 -30 -74t-72 -30q-44 0 -74 30t-30 74zM1304 640 q0 42 30 72t74 30q42 0 72 -30t30 -72q0 -44 -30 -74t-72 -30q-44 0 -74 30t-30 74zM1304 1408q0 42 30 72t74 30q42 0 72 -30t30 -72q0 -44 -30 -74t-72 -30q-44 0 -74 30t-30 74zM1560 384q0 42 30 72t74 30q42 0 72 -30t30 -72q0 -44 -30 -74t-72 -30q-44 0 -74 30 t-30 74zM1560 1664q0 42 30 72t74 30q42 0 72 -30t30 -72q0 -44 -30 -74t-72 -30q-44 0 -74 30t-30 74z" />
<glyph unicode="&#x26;" d="M24 384q0 42 30 72t74 30q42 0 72 -30t30 -72q0 -44 -30 -74t-72 -30q-44 0 -74 30t-30 74zM24 640q0 42 30 72t74 30q42 0 72 -30t30 -72q0 -44 -30 -74t-72 -30q-44 0 -74 30t-30 74zM24 1408q0 42 30 72t74 30q42 0 72 -30t30 -72q0 -44 -30 -74t-72 -30q-44 0 -74 30 t-30 74zM280 128q0 42 30 72t74 30q42 0 72 -30t30 -72q0 -44 -30 -74t-72 -30q-44 0 -74 30t-30 74zM280 896q0 42 30 72t74 30q42 0 72 -30t30 -72q0 -44 -30 -74t-72 -30q-44 0 -74 30t-30 74zM280 1664q0 42 30 72t74 30q42 0 72 -30t30 -72q0 -44 -30 -74t-72 -30 q-44 0 -74 30t-30 74zM536 128q0 42 30 72t74 30q42 0 72 -30t30 -72q0 -44 -30 -74t-72 -30q-44 0 -74 30t-30 74zM536 384q0 42 30 72t74 30q42 0 72 -30t30 -72q0 -44 -30 -74t-72 -30q-44 0 -74 30t-30 74zM536 640q0 42 30 72t74 30q42 0 72 -30t30 -72q0 -44 -30 -74 t-72 -30q-44 0 -74 30t-30 74zM536 896q0 42 30 72t74 30q42 0 72 -30t30 -72q0 -44 -30 -74t-72 -30q-44 0 -74 30t-30 74zM536 1152q0 42 30 72t74 30q42 0 72 -30t30 -72q0 -44 -30 -74t-72 -30q-44 0 -74 30t-30 74zM536 1408q0 42 30 72t74 30q42 0 72 -30t30 -72 q0 -44 -30 -74t-72 -30q-44 0 -74 30t-30 74zM536 1664q0 42 30 72t74 30q42 0 72 -30t30 -72q0 -44 -30 -74t-72 -30q-44 0 -74 30t-30 74zM536 1920q0 42 30 72t74 30q42 0 72 -30t30 -72q0 -44 -30 -74t-72 -30q-44 0 -74 30t-30 74zM792 128q0 42 30 72t74 30 q42 0 72 -30t30 -72q0 -44 -30 -74t-72 -30q-44 0 -74 30t-30 74zM792 896q0 42 30 72t74 30q42 0 72 -30t30 -72q0 -44 -30 -74t-72 -30q-44 0 -74 30t-30 74zM792 1664q0 42 30 72t74 30q42 0 72 -30t30 -72q0 -44 -30 -74t-72 -30q-44 0 -74 30t-30 74zM1048 384 q0 42 30 72t74 30q42 0 72 -30t30 -72q0 -44 -30 -74t-72 -30q-44 0 -74 30t-30 74zM1048 1152q0 42 30 72t74 30q42 0 72 -30t30 -72q0 -44 -30 -74t-72 -30q-44 0 -74 30t-30 74zM1048 1408q0 42 30 72t74 30q42 0 72 -30t30 -72q0 -44 -30 -74t-72 -30q-44 0 -74 30 t-30 74z" />
<glyph unicode="'" horiz-adv-x="1278" d="M536 640q0 42 30 72t74 30q42 0 72 -30t30 -72q0 -44 -30 -74t-72 -30q-44 0 -74 30t-30 74zM792 896q0 42 30 72t74 30q42 0 72 -30t30 -72q0 -44 -30 -74t-72 -30q-44 0 -74 30t-30 74z" />
<glyph unicode="(" horiz-adv-x="768" d="M24 384q0 42 30 72t74 30q42 0 72 -30t30 -72q0 -44 -30 -74t-72 -30q-44 0 -74 30t-30 74zM24 640q0 42 30 72t74 30q42 0 72 -30t30 -72q0 -44 -30 -74t-72 -30q-44 0 -74 30t-30 74zM24 896q0 42 30 72t74 30q42 0 72 -30t30 -72q0 -44 -30 -74t-72 -30q-44 0 -74 30 t-30 74zM24 1152q0 42 30 72t74 30q42 0 72 -30t30 -72q0 -44 -30 -74t-72 -30q-44 0 -74 30t-30 74zM24 1408q0 42 30 72t74 30q42 0 72 -30t30 -72q0 -44 -30 -74t-72 -30q-44 0 -74 30t-30 74zM280 128q0 42 30 72t74 30q42 0 72 -30t30 -72q0 -44 -30 -74t-72 -30 q-44 0 -74 30t-30 74zM280 1664q0 42 30 72t74 30q42 0 72 -30t30 -72q0 -44 -30 -74t-72 -30q-44 0 -74 30t-30 74z" />
<glyph unicode=")" horiz-adv-x="768" d="M24 128q0 42 30 72t74 30q42 0 72 -30t30 -72q0 -44 -30 -74t-72 -30q-44 0 -74 30t-30 74zM24 1664q0 42 30 72t74 30q42 0 72 -30t30 -72q0 -44 -30 -74t-72 -30q-44 0 -74 30t-30 74zM280 384q0 42 30 72t74 30q42 0 72 -30t30 -72q0 -44 -30 -74t-72 -30 q-44 0 -74 30t-30 74zM280 640q0 42 30 72t74 30q42 0 72 -30t30 -72q0 -44 -30 -74t-72 -30q-44 0 -74 30t-30 74zM280 896q0 42 30 72t74 30q42 0 72 -30t30 -72q0 -44 -30 -74t-72 -30q-44 0 -74 30t-30 74zM280 1152q0 42 30 72t74 30q42 0 72 -30t30 -72q0 -44 -30 -74 t-72 -30q-44 0 -74 30t-30 74zM280 1408q0 42 30 72t74 30q42 0 72 -30t30 -72q0 -44 -30 -74t-72 -30q-44 0 -74 30t-30 74z" />
<glyph unicode="*" horiz-adv-x="1278" d="M280 896q0 42 30 72t74 30q42 0 72 -30t30 -72q0 -44 -30 -74t-72 -30q-44 0 -74 30t-30 74zM280 1408q0 42 30 72t74 30q42 0 72 -30t30 -72q0 -44 -30 -74t-72 -30q-44 0 -74 30t-30 74zM536 1152q0 42 30 72t74 30q42 0 72 -30t30 -72q0 -44 -30 -74t-72 -30 q-44 0 -74 30t-30 74zM792 896q0 42 30 72t74 30q42 0 72 -30t30 -72q0 -44 -30 -74t-72 -30q-44 0 -74 30t-30 74zM792 1408q0 42 30 72t74 30q42 0 72 -30t30 -72q0 -44 -30 -74t-72 -30q-44 0 -74 30t-30 74z" />
<glyph unicode="+" d="M24 640q0 42 30 72t74 30q42 0 72 -30t30 -72q0 -44 -30 -74t-72 -30q-44 0 -74 30t-30 74zM280 640q0 42 30 72t74 30q42 0 72 -30t30 -72q0 -44 -30 -74t-72 -30q-44 0 -74 30t-30 74zM536 128q0 42 30 72t74 30q42 0 72 -30t30 -72q0 -44 -30 -74t-72 -30 q-44 0 -74 30t-30 74zM536 384q0 42 30 72t74 30q42 0 72 -30t30 -72q0 -44 -30 -74t-72 -30q-44 0 -74 30t-30 74zM536 640q0 42 30 72t74 30q42 0 72 -30t30 -72q0 -44 -30 -74t-72 -30q-44 0 -74 30t-30 74zM536 896q0 42 30 72t74 30q42 0 72 -30t30 -72q0 -44 -30 -74 t-72 -30q-44 0 -74 30t-30 74zM536 1152q0 42 30 72t74 30q42 0 72 -30t30 -72q0 -44 -30 -74t-72 -30q-44 0 -74 30t-30 74zM792 640q0 42 30 72t74 30q42 0 72 -30t30 -72q0 -44 -30 -74t-72 -30q-44 0 -74 30t-30 74zM1048 640q0 42 30 72t74 30q42 0 72 -30t30 -72 q0 -44 -30 -74t-72 -30q-44 0 -74 30t-30 74z" />
<glyph unicode="," horiz-adv-x="768" d="M24 128q0 42 30 72t74 30q42 0 72 -30t30 -72q0 -44 -30 -74t-72 -30q-44 0 -74 30t-30 74zM24 640q0 42 30 72t74 30q42 0 72 -30t30 -72q0 -44 -30 -74t-72 -30q-44 0 -74 30t-30 74zM280 384q0 42 30 72t74 30q42 0 72 -30t30 -72q0 -44 -30 -74t-72 -30q-44 0 -74 30 t-30 74zM280 640q0 42 30 72t74 30q42 0 72 -30t30 -72q0 -44 -30 -74t-72 -30q-44 0 -74 30t-30 74z" />
<glyph unicode="-" d="M24 896q0 42 30 72t74 30q42 0 72 -30t30 -72q0 -44 -30 -74t-72 -30q-44 0 -74 30t-30 74zM280 896q0 42 30 72t74 30q42 0 72 -30t30 -72q0 -44 -30 -74t-72 -30q-44 0 -74 30t-30 74zM536 896q0 42 30 72t74 30q42 0 72 -30t30 -72q0 -44 -30 -74t-72 -30 q-44 0 -74 30t-30 74zM792 896q0 42 30 72t74 30q42 0 72 -30t30 -72q0 -44 -30 -74t-72 -30q-44 0 -74 30t-30 74zM1048 896q0 42 30 72t74 30q42 0 72 -30t30 -72q0 -44 -30 -74t-72 -30q-44 0 -74 30t-30 74z" />
<glyph unicode="." horiz-adv-x="512" d="M24 128q0 42 30 72t74 30q42 0 72 -30t30 -72q0 -44 -30 -74t-72 -30q-44 0 -74 30t-30 74z" />
<glyph unicode="/" horiz-adv-x="1790" d="M24 128q0 42 30 72t74 30q42 0 72 -30t30 -72q0 -44 -30 -74t-72 -30q-44 0 -74 30t-30 74zM280 384q0 42 30 72t74 30q42 0 72 -30t30 -72q0 -44 -30 -74t-72 -30q-44 0 -74 30t-30 74zM536 640q0 42 30 72t74 30q42 0 72 -30t30 -72q0 -44 -30 -74t-72 -30 q-44 0 -74 30t-30 74zM792 896q0 42 30 72t74 30q42 0 72 -30t30 -72q0 -44 -30 -74t-72 -30q-44 0 -74 30t-30 74zM1048 1152q0 42 30 72t74 30q42 0 72 -30t30 -72q0 -44 -30 -74t-72 -30q-44 0 -74 30t-30 74zM1304 1408q0 42 30 72t74 30q42 0 72 -30t30 -72 q0 -44 -30 -74t-72 -30q-44 0 -74 30t-30 74z" />
<glyph unicode="0" d="M24 384q0 42 30 72t74 30q42 0 72 -30t30 -72q0 -44 -30 -74t-72 -30q-44 0 -74 30t-30 74zM24 640q0 42 30 72t74 30q42 0 72 -30t30 -72q0 -44 -30 -74t-72 -30q-44 0 -74 30t-30 74zM24 896q0 42 30 72t74 30q42 0 72 -30t30 -72q0 -44 -30 -74t-72 -30q-44 0 -74 30 t-30 74zM24 1152q0 42 30 72t74 30q42 0 72 -30t30 -72q0 -44 -30 -74t-72 -30q-44 0 -74 30t-30 74zM24 1408q0 42 30 72t74 30q42 0 72 -30t30 -72q0 -44 -30 -74t-72 -30q-44 0 -74 30t-30 74zM280 128q0 42 30 72t74 30q42 0 72 -30t30 -72q0 -44 -30 -74t-72 -30 q-44 0 -74 30t-30 74zM280 640q0 42 30 72t74 30q42 0 72 -30t30 -72q0 -44 -30 -74t-72 -30q-44 0 -74 30t-30 74zM280 1664q0 42 30 72t74 30q42 0 72 -30t30 -72q0 -44 -30 -74t-72 -30q-44 0 -74 30t-30 74zM536 128q0 42 30 72t74 30q42 0 72 -30t30 -72q0 -44 -30 -74 t-72 -30q-44 0 -74 30t-30 74zM536 896q0 42 30 72t74 30q42 0 72 -30t30 -72q0 -44 -30 -74t-72 -30q-44 0 -74 30t-30 74zM536 1664q0 42 30 72t74 30q42 0 72 -30t30 -72q0 -44 -30 -74t-72 -30q-44 0 -74 30t-30 74zM792 128q0 42 30 72t74 30q42 0 72 -30t30 -72 q0 -44 -30 -74t-72 -30q-44 0 -74 30t-30 74zM792 1152q0 42 30 72t74 30q42 0 72 -30t30 -72q0 -44 -30 -74t-72 -30q-44 0 -74 30t-30 74zM792 1664q0 42 30 72t74 30q42 0 72 -30t30 -72q0 -44 -30 -74t-72 -30q-44 0 -74 30t-30 74zM1048 384q0 42 30 72t74 30 q42 0 72 -30t30 -72q0 -44 -30 -74t-72 -30q-44 0 -74 30t-30 74zM1048 640q0 42 30 72t74 30q42 0 72 -30t30 -72q0 -44 -30 -74t-72 -30q-44 0 -74 30t-30 74zM1048 896q0 42 30 72t74 30q42 0 72 -30t30 -72q0 -44 -30 -74t-72 -30q-44 0 -74 30t-30 74zM1048 1152 q0 42 30 72t74 30q42 0 72 -30t30 -72q0 -44 -30 -74t-72 -30q-44 0 -74 30t-30 74zM1048 1408q0 42 30 72t74 30q42 0 72 -30t30 -72q0 -44 -30 -74t-72 -30q-44 0 -74 30t-30 74z" />
<glyph unicode="1" horiz-adv-x="1536" d="M24 128q0 42 30 72t74 30q42 0 72 -30t30 -72q0 -44 -30 -74t-72 -30q-44 0 -74 30t-30 74zM24 1408q0 42 30 72t74 30q42 0 72 -30t30 -72q0 -44 -30 -74t-72 -30q-44 0 -74 30t-30 74zM280 128q0 42 30 72t74 30q42 0 72 -30t30 -72q0 -44 -30 -74t-72 -30 q-44 0 -74 30t-30 74zM280 384q0 42 30 72t74 30q42 0 72 -30t30 -72q0 -44 -30 -74t-72 -30q-44 0 -74 30t-30 74zM280 640q0 42 30 72t74 30q42 0 72 -30t30 -72q0 -44 -30 -74t-72 -30q-44 0 -74 30t-30 74zM280 896q0 42 30 72t74 30q42 0 72 -30t30 -72q0 -44 -30 -74 t-72 -30q-44 0 -74 30t-30 74zM280 1152q0 42 30 72t74 30q42 0 72 -30t30 -72q0 -44 -30 -74t-72 -30q-44 0 -74 30t-30 74zM280 1408q0 42 30 72t74 30q42 0 72 -30t30 -72q0 -44 -30 -74t-72 -30q-44 0 -74 30t-30 74zM280 1664q0 42 30 72t74 30q42 0 72 -30t30 -72 q0 -44 -30 -74t-72 -30q-44 0 -74 30t-30 74zM536 128q0 42 30 72t74 30q42 0 72 -30t30 -72q0 -44 -30 -74t-72 -30q-44 0 -74 30t-30 74zM1126 102v50h50v-50h-50z" />
<glyph unicode="2" d="M24 128q0 42 30 72t74 30q42 0 72 -30t30 -72q0 -44 -30 -74t-72 -30q-44 0 -74 30t-30 74zM24 1408q0 42 30 72t74 30q42 0 72 -30t30 -72q0 -44 -30 -74t-72 -30q-44 0 -74 30t-30 74zM280 128q0 42 30 72t74 30q42 0 72 -30t30 -72q0 -44 -30 -74t-72 -30 q-44 0 -74 30t-30 74zM280 384q0 42 30 72t74 30q42 0 72 -30t30 -72q0 -44 -30 -74t-72 -30q-44 0 -74 30t-30 74zM280 1664q0 42 30 72t74 30q42 0 72 -30t30 -72q0 -44 -30 -74t-72 -30q-44 0 -74 30t-30 74zM536 128q0 42 30 72t74 30q42 0 72 -30t30 -72q0 -44 -30 -74 t-72 -30q-44 0 -74 30t-30 74zM536 640q0 42 30 72t74 30q42 0 72 -30t30 -72q0 -44 -30 -74t-72 -30q-44 0 -74 30t-30 74zM536 1664q0 42 30 72t74 30q42 0 72 -30t30 -72q0 -44 -30 -74t-72 -30q-44 0 -74 30t-30 74zM792 128q0 42 30 72t74 30q42 0 72 -30t30 -72 q0 -44 -30 -74t-72 -30q-44 0 -74 30t-30 74zM792 896q0 42 30 72t74 30q42 0 72 -30t30 -72q0 -44 -30 -74t-72 -30q-44 0 -74 30t-30 74zM792 1664q0 42 30 72t74 30q42 0 72 -30t30 -72q0 -44 -30 -74t-72 -30q-44 0 -74 30t-30 74zM1048 128q0 42 30 72t74 30 q42 0 72 -30t30 -72q0 -44 -30 -74t-72 -30q-44 0 -74 30t-30 74zM1048 1152q0 42 30 72t74 30q42 0 72 -30t30 -72q0 -44 -30 -74t-72 -30q-44 0 -74 30t-30 74zM1048 1408q0 42 30 72t74 30q42 0 72 -30t30 -72q0 -44 -30 -74t-72 -30q-44 0 -74 30t-30 74z" />
<glyph unicode="3" d="M24 384q0 42 30 72t74 30q42 0 72 -30t30 -72q0 -44 -30 -74t-72 -30q-44 0 -74 30t-30 74zM24 1408q0 42 30 72t74 30q42 0 72 -30t30 -72q0 -44 -30 -74t-72 -30q-44 0 -74 30t-30 74zM280 128q0 42 30 72t74 30q42 0 72 -30t30 -72q0 -44 -30 -74t-72 -30 q-44 0 -74 30t-30 74zM280 896q0 42 30 72t74 30q42 0 72 -30t30 -72q0 -44 -30 -74t-72 -30q-44 0 -74 30t-30 74zM280 1664q0 42 30 72t74 30q42 0 72 -30t30 -72q0 -44 -30 -74t-72 -30q-44 0 -74 30t-30 74zM536 128q0 42 30 72t74 30q42 0 72 -30t30 -72q0 -44 -30 -74 t-72 -30q-44 0 -74 30t-30 74zM536 896q0 42 30 72t74 30q42 0 72 -30t30 -72q0 -44 -30 -74t-72 -30q-44 0 -74 30t-30 74zM536 1664q0 42 30 72t74 30q42 0 72 -30t30 -72q0 -44 -30 -74t-72 -30q-44 0 -74 30t-30 74zM792 128q0 42 30 72t74 30q42 0 72 -30t30 -72 q0 -44 -30 -74t-72 -30q-44 0 -74 30t-30 74zM792 896q0 42 30 72t74 30q42 0 72 -30t30 -72q0 -44 -30 -74t-72 -30q-44 0 -74 30t-30 74zM792 1664q0 42 30 72t74 30q42 0 72 -30t30 -72q0 -44 -30 -74t-72 -30q-44 0 -74 30t-30 74zM1048 384q0 42 30 72t74 30 q42 0 72 -30t30 -72q0 -44 -30 -74t-72 -30q-44 0 -74 30t-30 74zM1048 640q0 42 30 72t74 30q42 0 72 -30t30 -72q0 -44 -30 -74t-72 -30q-44 0 -74 30t-30 74zM1048 1152q0 42 30 72t74 30q42 0 72 -30t30 -72q0 -44 -30 -74t-72 -30q-44 0 -74 30t-30 74zM1048 1408 q0 42 30 72t74 30q42 0 72 -30t30 -72q0 -44 -30 -74t-72 -30q-44 0 -74 30t-30 74z" />
<glyph unicode="4" d="M24 896q0 42 30 72t74 30q42 0 72 -30t30 -72q0 -44 -30 -74t-72 -30q-44 0 -74 30t-30 74zM280 896q0 42 30 72t74 30q42 0 72 -30t30 -72q0 -44 -30 -74t-72 -30q-44 0 -74 30t-30 74zM280 1152q0 42 30 72t74 30q42 0 72 -30t30 -72q0 -44 -30 -74t-72 -30 q-44 0 -74 30t-30 74zM536 896q0 42 30 72t74 30q42 0 72 -30t30 -72q0 -44 -30 -74t-72 -30q-44 0 -74 30t-30 74zM536 1408q0 42 30 72t74 30q42 0 72 -30t30 -72q0 -44 -30 -74t-72 -30q-44 0 -74 30t-30 74zM792 128q0 42 30 72t74 30q42 0 72 -30t30 -72q0 -44 -30 -74 t-72 -30q-44 0 -74 30t-30 74zM792 384q0 42 30 72t74 30q42 0 72 -30t30 -72q0 -44 -30 -74t-72 -30q-44 0 -74 30t-30 74zM792 640q0 42 30 72t74 30q42 0 72 -30t30 -72q0 -44 -30 -74t-72 -30q-44 0 -74 30t-30 74zM792 896q0 42 30 72t74 30q42 0 72 -30t30 -72 q0 -44 -30 -74t-72 -30q-44 0 -74 30t-30 74zM792 1152q0 42 30 72t74 30q42 0 72 -30t30 -72q0 -44 -30 -74t-72 -30q-44 0 -74 30t-30 74zM792 1408q0 42 30 72t74 30q42 0 72 -30t30 -72q0 -44 -30 -74t-72 -30q-44 0 -74 30t-30 74zM792 1664q0 42 30 72t74 30 q42 0 72 -30t30 -72q0 -44 -30 -74t-72 -30q-44 0 -74 30t-30 74zM1048 896q0 42 30 72t74 30q42 0 72 -30t30 -72q0 -44 -30 -74t-72 -30q-44 0 -74 30t-30 74z" />
<glyph unicode="5" d="M24 384q0 42 30 72t74 30q42 0 72 -30t30 -72q0 -44 -30 -74t-72 -30q-44 0 -74 30t-30 74zM24 1152q0 42 30 72t74 30q42 0 72 -30t30 -72q0 -44 -30 -74t-72 -30q-44 0 -74 30t-30 74zM24 1408q0 42 30 72t74 30q42 0 72 -30t30 -72q0 -44 -30 -74t-72 -30 q-44 0 -74 30t-30 74zM24 1664q0 42 30 72t74 30q42 0 72 -30t30 -72q0 -44 -30 -74t-72 -30q-44 0 -74 30t-30 74zM280 128q0 42 30 72t74 30q42 0 72 -30t30 -72q0 -44 -30 -74t-72 -30q-44 0 -74 30t-30 74zM280 896q0 42 30 72t74 30q42 0 72 -30t30 -72q0 -44 -30 -74 t-72 -30q-44 0 -74 30t-30 74zM280 1664q0 42 30 72t74 30q42 0 72 -30t30 -72q0 -44 -30 -74t-72 -30q-44 0 -74 30t-30 74zM536 128q0 42 30 72t74 30q42 0 72 -30t30 -72q0 -44 -30 -74t-72 -30q-44 0 -74 30t-30 74zM536 896q0 42 30 72t74 30q42 0 72 -30t30 -72 q0 -44 -30 -74t-72 -30q-44 0 -74 30t-30 74zM536 1664q0 42 30 72t74 30q42 0 72 -30t30 -72q0 -44 -30 -74t-72 -30q-44 0 -74 30t-30 74zM792 128q0 42 30 72t74 30q42 0 72 -30t30 -72q0 -44 -30 -74t-72 -30q-44 0 -74 30t-30 74zM792 896q0 42 30 72t74 30 q42 0 72 -30t30 -72q0 -44 -30 -74t-72 -30q-44 0 -74 30t-30 74zM792 1664q0 42 30 72t74 30q42 0 72 -30t30 -72q0 -44 -30 -74t-72 -30q-44 0 -74 30t-30 74zM1048 384q0 42 30 72t74 30q42 0 72 -30t30 -72q0 -44 -30 -74t-72 -30q-44 0 -74 30t-30 74zM1048 640 q0 42 30 72t74 30q42 0 72 -30t30 -72q0 -44 -30 -74t-72 -30q-44 0 -74 30t-30 74zM1048 1664q0 42 30 72t74 30q42 0 72 -30t30 -72q0 -44 -30 -74t-72 -30q-44 0 -74 30t-30 74z" />
<glyph unicode="6" d="M24 384q0 42 30 72t74 30q42 0 72 -30t30 -72q0 -44 -30 -74t-72 -30q-44 0 -74 30t-30 74zM24 640q0 42 30 72t74 30q42 0 72 -30t30 -72q0 -44 -30 -74t-72 -30q-44 0 -74 30t-30 74zM24 896q0 42 30 72t74 30q42 0 72 -30t30 -72q0 -44 -30 -74t-72 -30q-44 0 -74 30 t-30 74zM24 1152q0 42 30 72t74 30q42 0 72 -30t30 -72q0 -44 -30 -74t-72 -30q-44 0 -74 30t-30 74zM24 1408q0 42 30 72t74 30q42 0 72 -30t30 -72q0 -44 -30 -74t-72 -30q-44 0 -74 30t-30 74zM280 128q0 42 30 72t74 30q42 0 72 -30t30 -72q0 -44 -30 -74t-72 -30 q-44 0 -74 30t-30 74zM280 896q0 42 30 72t74 30q42 0 72 -30t30 -72q0 -44 -30 -74t-72 -30q-44 0 -74 30t-30 74zM280 1664q0 42 30 72t74 30q42 0 72 -30t30 -72q0 -44 -30 -74t-72 -30q-44 0 -74 30t-30 74zM536 128q0 42 30 72t74 30q42 0 72 -30t30 -72q0 -44 -30 -74 t-72 -30q-44 0 -74 30t-30 74zM536 896q0 42 30 72t74 30q42 0 72 -30t30 -72q0 -44 -30 -74t-72 -30q-44 0 -74 30t-30 74zM536 1664q0 42 30 72t74 30q42 0 72 -30t30 -72q0 -44 -30 -74t-72 -30q-44 0 -74 30t-30 74zM792 128q0 42 30 72t74 30q42 0 72 -30t30 -72 q0 -44 -30 -74t-72 -30q-44 0 -74 30t-30 74zM792 896q0 42 30 72t74 30q42 0 72 -30t30 -72q0 -44 -30 -74t-72 -30q-44 0 -74 30t-30 74zM792 1664q0 42 30 72t74 30q42 0 72 -30t30 -72q0 -44 -30 -74t-72 -30q-44 0 -74 30t-30 74zM1048 384q0 42 30 72t74 30 q42 0 72 -30t30 -72q0 -44 -30 -74t-72 -30q-44 0 -74 30t-30 74zM1048 640q0 42 30 72t74 30q42 0 72 -30t30 -72q0 -44 -30 -74t-72 -30q-44 0 -74 30t-30 74zM1048 1408q0 42 30 72t74 30q42 0 72 -30t30 -72q0 -44 -30 -74t-72 -30q-44 0 -74 30t-30 74z" />
<glyph unicode="7" d="M24 128q0 42 30 72t74 30q42 0 72 -30t30 -72q0 -44 -30 -74t-72 -30q-44 0 -74 30t-30 74zM24 1664q0 42 30 72t74 30q42 0 72 -30t30 -72q0 -44 -30 -74t-72 -30q-44 0 -74 30t-30 74zM280 384q0 42 30 72t74 30q42 0 72 -30t30 -72q0 -44 -30 -74t-72 -30 q-44 0 -74 30t-30 74zM280 1664q0 42 30 72t74 30q42 0 72 -30t30 -72q0 -44 -30 -74t-72 -30q-44 0 -74 30t-30 74zM536 640q0 42 30 72t74 30q42 0 72 -30t30 -72q0 -44 -30 -74t-72 -30q-44 0 -74 30t-30 74zM536 1664q0 42 30 72t74 30q42 0 72 -30t30 -72 q0 -44 -30 -74t-72 -30q-44 0 -74 30t-30 74zM792 896q0 42 30 72t74 30q42 0 72 -30t30 -72q0 -44 -30 -74t-72 -30q-44 0 -74 30t-30 74zM792 1664q0 42 30 72t74 30q42 0 72 -30t30 -72q0 -44 -30 -74t-72 -30q-44 0 -74 30t-30 74zM1048 1152q0 42 30 72t74 30 q42 0 72 -30t30 -72q0 -44 -30 -74t-72 -30q-44 0 -74 30t-30 74zM1048 1408q0 42 30 72t74 30q42 0 72 -30t30 -72q0 -44 -30 -74t-72 -30q-44 0 -74 30t-30 74zM1048 1664q0 42 30 72t74 30q42 0 72 -30t30 -72q0 -44 -30 -74t-72 -30q-44 0 -74 30t-30 74z" />
<glyph unicode="8" d="M24 384q0 42 30 72t74 30q42 0 72 -30t30 -72q0 -44 -30 -74t-72 -30q-44 0 -74 30t-30 74zM24 640q0 42 30 72t74 30q42 0 72 -30t30 -72q0 -44 -30 -74t-72 -30q-44 0 -74 30t-30 74zM24 1152q0 42 30 72t74 30q42 0 72 -30t30 -72q0 -44 -30 -74t-72 -30q-44 0 -74 30 t-30 74zM24 1408q0 42 30 72t74 30q42 0 72 -30t30 -72q0 -44 -30 -74t-72 -30q-44 0 -74 30t-30 74zM280 128q0 42 30 72t74 30q42 0 72 -30t30 -72q0 -44 -30 -74t-72 -30q-44 0 -74 30t-30 74zM280 896q0 42 30 72t74 30q42 0 72 -30t30 -72q0 -44 -30 -74t-72 -30 q-44 0 -74 30t-30 74zM280 1664q0 42 30 72t74 30q42 0 72 -30t30 -72q0 -44 -30 -74t-72 -30q-44 0 -74 30t-30 74zM536 128q0 42 30 72t74 30q42 0 72 -30t30 -72q0 -44 -30 -74t-72 -30q-44 0 -74 30t-30 74zM536 896q0 42 30 72t74 30q42 0 72 -30t30 -72q0 -44 -30 -74 t-72 -30q-44 0 -74 30t-30 74zM536 1664q0 42 30 72t74 30q42 0 72 -30t30 -72q0 -44 -30 -74t-72 -30q-44 0 -74 30t-30 74zM792 128q0 42 30 72t74 30q42 0 72 -30t30 -72q0 -44 -30 -74t-72 -30q-44 0 -74 30t-30 74zM792 896q0 42 30 72t74 30q42 0 72 -30t30 -72 q0 -44 -30 -74t-72 -30q-44 0 -74 30t-30 74zM792 1664q0 42 30 72t74 30q42 0 72 -30t30 -72q0 -44 -30 -74t-72 -30q-44 0 -74 30t-30 74zM1048 384q0 42 30 72t74 30q42 0 72 -30t30 -72q0 -44 -30 -74t-72 -30q-44 0 -74 30t-30 74zM1048 640q0 42 30 72t74 30 q42 0 72 -30t30 -72q0 -44 -30 -74t-72 -30q-44 0 -74 30t-30 74zM1048 1152q0 42 30 72t74 30q42 0 72 -30t30 -72q0 -44 -30 -74t-72 -30q-44 0 -74 30t-30 74zM1048 1408q0 42 30 72t74 30q42 0 72 -30t30 -72q0 -44 -30 -74t-72 -30q-44 0 -74 30t-30 74z" />
<glyph unicode="9" d="M24 384q0 42 30 72t74 30q42 0 72 -30t30 -72q0 -44 -30 -74t-72 -30q-44 0 -74 30t-30 74zM24 1152q0 42 30 72t74 30q42 0 72 -30t30 -72q0 -44 -30 -74t-72 -30q-44 0 -74 30t-30 74zM24 1408q0 42 30 72t74 30q42 0 72 -30t30 -72q0 -44 -30 -74t-72 -30 q-44 0 -74 30t-30 74zM280 128q0 42 30 72t74 30q42 0 72 -30t30 -72q0 -44 -30 -74t-72 -30q-44 0 -74 30t-30 74zM280 896q0 42 30 72t74 30q42 0 72 -30t30 -72q0 -44 -30 -74t-72 -30q-44 0 -74 30t-30 74zM280 1664q0 42 30 72t74 30q42 0 72 -30t30 -72q0 -44 -30 -74 t-72 -30q-44 0 -74 30t-30 74zM536 128q0 42 30 72t74 30q42 0 72 -30t30 -72q0 -44 -30 -74t-72 -30q-44 0 -74 30t-30 74zM536 896q0 42 30 72t74 30q42 0 72 -30t30 -72q0 -44 -30 -74t-72 -30q-44 0 -74 30t-30 74zM536 1664q0 42 30 72t74 30q42 0 72 -30t30 -72 q0 -44 -30 -74t-72 -30q-44 0 -74 30t-30 74zM792 128q0 42 30 72t74 30q42 0 72 -30t30 -72q0 -44 -30 -74t-72 -30q-44 0 -74 30t-30 74zM792 896q0 42 30 72t74 30q42 0 72 -30t30 -72q0 -44 -30 -74t-72 -30q-44 0 -74 30t-30 74zM792 1664q0 42 30 72t74 30 q42 0 72 -30t30 -72q0 -44 -30 -74t-72 -30q-44 0 -74 30t-30 74zM1048 384q0 42 30 72t74 30q42 0 72 -30t30 -72q0 -44 -30 -74t-72 -30q-44 0 -74 30t-30 74zM1048 640q0 42 30 72t74 30q42 0 72 -30t30 -72q0 -44 -30 -74t-72 -30q-44 0 -74 30t-30 74zM1048 896 q0 42 30 72t74 30q42 0 72 -30t30 -72q0 -44 -30 -74t-72 -30q-44 0 -74 30t-30 74zM1048 1152q0 42 30 72t74 30q42 0 72 -30t30 -72q0 -44 -30 -74t-72 -30q-44 0 -74 30t-30 74zM1048 1408q0 42 30 72t74 30q42 0 72 -30t30 -72q0 -44 -30 -74t-72 -30q-44 0 -74 30 t-30 74z" />
<glyph unicode=":" horiz-adv-x="1022" d="M536 384q0 42 30 72t74 30q42 0 72 -30t30 -72q0 -44 -30 -74t-72 -30q-44 0 -74 30t-30 74zM536 896q0 42 30 72t74 30q42 0 72 -30t30 -72q0 -44 -30 -74t-72 -30q-44 0 -74 30t-30 74z" />
<glyph unicode=";" horiz-adv-x="1022" d="M280 128q0 42 30 72t74 30q42 0 72 -30t30 -72q0 -44 -30 -74t-72 -30q-44 0 -74 30t-30 74zM536 384q0 42 30 72t74 30q42 0 72 -30t30 -72q0 -44 -30 -74t-72 -30q-44 0 -74 30t-30 74zM536 1152q0 42 30 72t74 30q42 0 72 -30t30 -72q0 -44 -30 -74t-72 -30 q-44 0 -74 30t-30 74z" />
<glyph unicode="&#x3c;" d="M24 1152q0 42 30 72t74 30q42 0 72 -30t30 -72q0 -44 -30 -74t-72 -30q-44 0 -74 30t-30 74zM280 128q0 42 30 72t74 30q42 0 72 -30t30 -72q0 -44 -30 -74t-72 -30q-44 0 -74 30t-30 74zM280 384q0 42 30 72t74 30q42 0 72 -30t30 -72q0 -44 -30 -74t-72 -30 q-44 0 -74 30t-30 74zM280 640q0 42 30 72t74 30q42 0 72 -30t30 -72q0 -44 -30 -74t-72 -30q-44 0 -74 30t-30 74zM280 896q0 42 30 72t74 30q42 0 72 -30t30 -72q0 -44 -30 -74t-72 -30q-44 0 -74 30t-30 74zM280 1152q0 42 30 72t74 30q42 0 72 -30t30 -72q0 -44 -30 -74 t-72 -30q-44 0 -74 30t-30 74zM280 1408q0 42 30 72t74 30q42 0 72 -30t30 -72q0 -44 -30 -74t-72 -30q-44 0 -74 30t-30 74zM536 128q0 42 30 72t74 30q42 0 72 -30t30 -72q0 -44 -30 -74t-72 -30q-44 0 -74 30t-30 74zM536 384q0 42 30 72t74 30q42 0 72 -30t30 -72 q0 -44 -30 -74t-72 -30q-44 0 -74 30t-30 74zM536 640q0 42 30 72t74 30q42 0 72 -30t30 -72q0 -44 -30 -74t-72 -30q-44 0 -74 30t-30 74zM536 896q0 42 30 72t74 30q42 0 72 -30t30 -72q0 -44 -30 -74t-72 -30q-44 0 -74 30t-30 74zM536 1152q0 42 30 72t74 30 q42 0 72 -30t30 -72q0 -44 -30 -74t-72 -30q-44 0 -74 30t-30 74zM536 1408q0 42 30 72t74 30q42 0 72 -30t30 -72q0 -44 -30 -74t-72 -30q-44 0 -74 30t-30 74zM536 1664q0 42 30 72t74 30q42 0 72 -30t30 -72q0 -44 -30 -74t-72 -30q-44 0 -74 30t-30 74zM792 128 q0 42 30 72t74 30q42 0 72 -30t30 -72q0 -44 -30 -74t-72 -30q-44 0 -74 30t-30 74zM792 384q0 42 30 72t74 30q42 0 72 -30t30 -72q0 -44 -30 -74t-72 -30q-44 0 -74 30t-30 74zM792 640q0 42 30 72t74 30q42 0 72 -30t30 -72q0 -44 -30 -74t-72 -30q-44 0 -74 30t-30 74z M792 896q0 42 30 72t74 30q42 0 72 -30t30 -72q0 -44 -30 -74t-72 -30q-44 0 -74 30t-30 74zM792 1152q0 42 30 72t74 30q42 0 72 -30t30 -72q0 -44 -30 -74t-72 -30q-44 0 -74 30t-30 74zM792 1408q0 42 30 72t74 30q42 0 72 -30t30 -72q0 -44 -30 -74t-72 -30 q-44 0 -74 30t-30 74zM1048 1152q0 42 30 72t74 30q42 0 72 -30t30 -72q0 -44 -30 -74t-72 -30q-44 0 -74 30t-30 74z" />
<glyph unicode="=" d="M280 384q0 42 30 72t74 30q42 0 72 -30t30 -72q0 -44 -30 -74t-72 -30q-44 0 -74 30t-30 74zM280 896q0 42 30 72t74 30q42 0 72 -30t30 -72q0 -44 -30 -74t-72 -30q-44 0 -74 30t-30 74zM536 384q0 42 30 72t74 30q42 0 72 -30t30 -72q0 -44 -30 -74t-72 -30 q-44 0 -74 30t-30 74zM536 896q0 42 30 72t74 30q42 0 72 -30t30 -72q0 -44 -30 -74t-72 -30q-44 0 -74 30t-30 74zM792 384q0 42 30 72t74 30q42 0 72 -30t30 -72q0 -44 -30 -74t-72 -30q-44 0 -74 30t-30 74zM792 896q0 42 30 72t74 30q42 0 72 -30t30 -72q0 -44 -30 -74 t-72 -30q-44 0 -74 30t-30 74zM1048 384q0 42 30 72t74 30q42 0 72 -30t30 -72q0 -44 -30 -74t-72 -30q-44 0 -74 30t-30 74zM1048 896q0 42 30 72t74 30q42 0 72 -30t30 -72q0 -44 -30 -74t-72 -30q-44 0 -74 30t-30 74z" />
<glyph unicode="&#x3e;" d="M24 640q0 42 30 72t74 30q42 0 72 -30t30 -72q0 -44 -30 -74t-72 -30q-44 0 -74 30t-30 74zM280 384q0 42 30 72t74 30q42 0 72 -30t30 -72q0 -44 -30 -74t-72 -30q-44 0 -74 30t-30 74zM280 640q0 42 30 72t74 30q42 0 72 -30t30 -72q0 -44 -30 -74t-72 -30 q-44 0 -74 30t-30 74zM280 896q0 42 30 72t74 30q42 0 72 -30t30 -72q0 -44 -30 -74t-72 -30q-44 0 -74 30t-30 74zM280 1152q0 42 30 72t74 30q42 0 72 -30t30 -72q0 -44 -30 -74t-72 -30q-44 0 -74 30t-30 74zM280 1408q0 42 30 72t74 30q42 0 72 -30t30 -72 q0 -44 -30 -74t-72 -30q-44 0 -74 30t-30 74zM280 1664q0 42 30 72t74 30q42 0 72 -30t30 -72q0 -44 -30 -74t-72 -30q-44 0 -74 30t-30 74zM536 128q0 42 30 72t74 30q42 0 72 -30t30 -72q0 -44 -30 -74t-72 -30q-44 0 -74 30t-30 74zM536 384q0 42 30 72t74 30 q42 0 72 -30t30 -72q0 -44 -30 -74t-72 -30q-44 0 -74 30t-30 74zM536 640q0 42 30 72t74 30q42 0 72 -30t30 -72q0 -44 -30 -74t-72 -30q-44 0 -74 30t-30 74zM536 896q0 42 30 72t74 30q42 0 72 -30t30 -72q0 -44 -30 -74t-72 -30q-44 0 -74 30t-30 74zM536 1152 q0 42 30 72t74 30q42 0 72 -30t30 -72q0 -44 -30 -74t-72 -30q-44 0 -74 30t-30 74zM536 1408q0 42 30 72t74 30q42 0 72 -30t30 -72q0 -44 -30 -74t-72 -30q-44 0 -74 30t-30 74zM536 1664q0 42 30 72t74 30q42 0 72 -30t30 -72q0 -44 -30 -74t-72 -30q-44 0 -74 30t-30 74 zM792 384q0 42 30 72t74 30q42 0 72 -30t30 -72q0 -44 -30 -74t-72 -30q-44 0 -74 30t-30 74zM792 640q0 42 30 72t74 30q42 0 72 -30t30 -72q0 -44 -30 -74t-72 -30q-44 0 -74 30t-30 74zM792 896q0 42 30 72t74 30q42 0 72 -30t30 -72q0 -44 -30 -74t-72 -30q-44 0 -74 30 t-30 74zM792 1152q0 42 30 72t74 30q42 0 72 -30t30 -72q0 -44 -30 -74t-72 -30q-44 0 -74 30t-30 74zM792 1408q0 42 30 72t74 30q42 0 72 -30t30 -72q0 -44 -30 -74t-72 -30q-44 0 -74 30t-30 74zM792 1664q0 42 30 72t74 30q42 0 72 -30t30 -72q0 -44 -30 -74t-72 -30 q-44 0 -74 30t-30 74zM1048 640q0 42 30 72t74 30q42 0 72 -30t30 -72q0 -44 -30 -74t-72 -30q-44 0 -74 30t-30 74z" />
<glyph unicode="?" d="M24 1152q0 42 30 72t74 30q42 0 72 -30t30 -72q0 -44 -30 -74t-72 -30q-44 0 -74 30t-30 74zM280 1408q0 42 30 72t74 30q42 0 72 -30t30 -72q0 -44 -30 -74t-72 -30q-44 0 -74 30t-30 74zM536 128q0 42 30 72t74 30q42 0 72 -30t30 -72q0 -44 -30 -74t-72 -30 q-44 0 -74 30t-30 74zM536 640q0 42 30 72t74 30q42 0 72 -30t30 -72q0 -44 -30 -74t-72 -30q-44 0 -74 30t-30 74zM536 1408q0 42 30 72t74 30q42 0 72 -30t30 -72q0 -44 -30 -74t-72 -30q-44 0 -74 30t-30 74zM792 896q0 42 30 72t74 30q42 0 72 -30t30 -72q0 -44 -30 -74 t-72 -30q-44 0 -74 30t-30 74zM792 1408q0 42 30 72t74 30q42 0 72 -30t30 -72q0 -44 -30 -74t-72 -30q-44 0 -74 30t-30 74zM1048 1152q0 42 30 72t74 30q42 0 72 -30t30 -72q0 -44 -30 -74t-72 -30q-44 0 -74 30t-30 74z" />
<glyph unicode="@" horiz-adv-x="2046" d="M24 384q0 42 30 72t74 30q42 0 72 -30t30 -72q0 -44 -30 -74t-72 -30q-44 0 -74 30t-30 74zM24 640q0 42 30 72t74 30q42 0 72 -30t30 -72q0 -44 -30 -74t-72 -30q-44 0 -74 30t-30 74zM24 896q0 42 30 72t74 30q42 0 72 -30t30 -72q0 -44 -30 -74t-72 -30q-44 0 -74 30 t-30 74zM24 1152q0 42 30 72t74 30q42 0 72 -30t30 -72q0 -44 -30 -74t-72 -30q-44 0 -74 30t-30 74zM24 1408q0 42 30 72t74 30q42 0 72 -30t30 -72q0 -44 -30 -74t-72 -30q-44 0 -74 30t-30 74zM24 1920q0 42 30 72t74 30q42 0 72 -30t30 -72q0 -44 -30 -74t-72 -30 q-44 0 -74 30t-30 74zM280 128q0 42 30 72t74 30q42 0 72 -30t30 -72q0 -44 -30 -74t-72 -30q-44 0 -74 30t-30 74zM280 1664q0 42 30 72t74 30q42 0 72 -30t30 -72q0 -44 -30 -74t-72 -30q-44 0 -74 30t-30 74zM280 1920q0 42 30 72t74 30q42 0 72 -30t30 -72 q0 -44 -30 -74t-72 -30q-44 0 -74 30t-30 74zM536 128q0 42 30 72t74 30q42 0 72 -30t30 -72q0 -44 -30 -74t-72 -30q-44 0 -74 30t-30 74zM536 1664q0 42 30 72t74 30q42 0 72 -30t30 -72q0 -44 -30 -74t-72 -30q-44 0 -74 30t-30 74zM536 1920q0 42 30 72t74 30 q42 0 72 -30t30 -72q0 -44 -30 -74t-72 -30q-44 0 -74 30t-30 74zM792 128q0 42 30 72t74 30q42 0 72 -30t30 -72q0 -44 -30 -74t-72 -30q-44 0 -74 30t-30 74zM792 1664q0 42 30 72t74 30q42 0 72 -30t30 -72q0 -44 -30 -74t-72 -30q-44 0 -74 30t-30 74zM792 1920 q0 42 30 72t74 30q42 0 72 -30t30 -72q0 -44 -30 -74t-72 -30q-44 0 -74 30t-30 74zM1048 384q0 42 30 72t74 30q42 0 72 -30t30 -72q0 -44 -30 -74t-72 -30q-44 0 -74 30t-30 74zM1048 640q0 42 30 72t74 30q42 0 72 -30t30 -72q0 -44 -30 -74t-72 -30q-44 0 -74 30t-30 74 zM1048 896q0 42 30 72t74 30q42 0 72 -30t30 -72q0 -44 -30 -74t-72 -30q-44 0 -74 30t-30 74zM1048 1152q0 42 30 72t74 30q42 0 72 -30t30 -72q0 -44 -30 -74t-72 -30q-44 0 -74 30t-30 74zM1048 1408q0 42 30 72t74 30q42 0 72 -30t30 -72q0 -44 -30 -74t-72 -30 q-44 0 -74 30t-30 74zM1048 1920q0 42 30 72t74 30q42 0 72 -30t30 -72q0 -44 -30 -74t-72 -30q-44 0 -74 30t-30 74zM1304 128q0 42 30 72t74 30q42 0 72 -30t30 -72q0 -44 -30 -74t-72 -30q-44 0 -74 30t-30 74zM1304 1664q0 42 30 72t74 30q42 0 72 -30t30 -72 q0 -44 -30 -74t-72 -30q-44 0 -74 30t-30 74zM1560 384q0 42 30 72t74 30q42 0 72 -30t30 -72q0 -44 -30 -74t-72 -30q-44 0 -74 30t-30 74zM1560 640q0 42 30 72t74 30q42 0 72 -30t30 -72q0 -44 -30 -74t-72 -30q-44 0 -74 30t-30 74zM1560 896q0 42 30 72t74 30 q42 0 72 -30t30 -72q0 -44 -30 -74t-72 -30q-44 0 -74 30t-30 74zM1560 1152q0 42 30 72t74 30q42 0 72 -30t30 -72q0 -44 -30 -74t-72 -30q-44 0 -74 30t-30 74zM1560 1408q0 42 30 72t74 30q42 0 72 -30t30 -72q0 -44 -30 -74t-72 -30q-44 0 -74 30t-30 74z" />
<glyph unicode="A" d="M24 128q0 42 30 72t74 30q42 0 72 -30t30 -72q0 -44 -30 -74t-72 -30q-44 0 -74 30t-30 74zM24 384q0 42 30 72t74 30q42 0 72 -30t30 -72q0 -44 -30 -74t-72 -30q-44 0 -74 30t-30 74zM24 640q0 42 30 72t74 30q42 0 72 -30t30 -72q0 -44 -30 -74t-72 -30q-44 0 -74 30 t-30 74zM24 896q0 42 30 72t74 30q42 0 72 -30t30 -72q0 -44 -30 -74t-72 -30q-44 0 -74 30t-30 74zM24 1152q0 42 30 72t74 30q42 0 72 -30t30 -72q0 -44 -30 -74t-72 -30q-44 0 -74 30t-30 74zM280 896q0 42 30 72t74 30q42 0 72 -30t30 -72q0 -44 -30 -74t-72 -30 q-44 0 -74 30t-30 74zM280 1408q0 42 30 72t74 30q42 0 72 -30t30 -72q0 -44 -30 -74t-72 -30q-44 0 -74 30t-30 74zM536 896q0 42 30 72t74 30q42 0 72 -30t30 -72q0 -44 -30 -74t-72 -30q-44 0 -74 30t-30 74zM536 1664q0 42 30 72t74 30q42 0 72 -30t30 -72 q0 -44 -30 -74t-72 -30q-44 0 -74 30t-30 74zM792 896q0 42 30 72t74 30q42 0 72 -30t30 -72q0 -44 -30 -74t-72 -30q-44 0 -74 30t-30 74zM792 1408q0 42 30 72t74 30q42 0 72 -30t30 -72q0 -44 -30 -74t-72 -30q-44 0 -74 30t-30 74zM1048 128q0 42 30 72t74 30 q42 0 72 -30t30 -72q0 -44 -30 -74t-72 -30q-44 0 -74 30t-30 74zM1048 384q0 42 30 72t74 30q42 0 72 -30t30 -72q0 -44 -30 -74t-72 -30q-44 0 -74 30t-30 74zM1048 640q0 42 30 72t74 30q42 0 72 -30t30 -72q0 -44 -30 -74t-72 -30q-44 0 -74 30t-30 74zM1048 896 q0 42 30 72t74 30q42 0 72 -30t30 -72q0 -44 -30 -74t-72 -30q-44 0 -74 30t-30 74zM1048 1152q0 42 30 72t74 30q42 0 72 -30t30 -72q0 -44 -30 -74t-72 -30q-44 0 -74 30t-30 74z" />
<glyph unicode="B" d="M24 128q0 42 30 72t74 30q42 0 72 -30t30 -72q0 -44 -30 -74t-72 -30q-44 0 -74 30t-30 74zM24 384q0 42 30 72t74 30q42 0 72 -30t30 -72q0 -44 -30 -74t-72 -30q-44 0 -74 30t-30 74zM24 640q0 42 30 72t74 30q42 0 72 -30t30 -72q0 -44 -30 -74t-72 -30q-44 0 -74 30 t-30 74zM24 896q0 42 30 72t74 30q42 0 72 -30t30 -72q0 -44 -30 -74t-72 -30q-44 0 -74 30t-30 74zM24 1152q0 42 30 72t74 30q42 0 72 -30t30 -72q0 -44 -30 -74t-72 -30q-44 0 -74 30t-30 74zM24 1408q0 42 30 72t74 30q42 0 72 -30t30 -72q0 -44 -30 -74t-72 -30 q-44 0 -74 30t-30 74zM24 1664q0 42 30 72t74 30q42 0 72 -30t30 -72q0 -44 -30 -74t-72 -30q-44 0 -74 30t-30 74zM280 128q0 42 30 72t74 30q42 0 72 -30t30 -72q0 -44 -30 -74t-72 -30q-44 0 -74 30t-30 74zM280 896q0 42 30 72t74 30q42 0 72 -30t30 -72q0 -44 -30 -74 t-72 -30q-44 0 -74 30t-30 74zM280 1664q0 42 30 72t74 30q42 0 72 -30t30 -72q0 -44 -30 -74t-72 -30q-44 0 -74 30t-30 74zM536 128q0 42 30 72t74 30q42 0 72 -30t30 -72q0 -44 -30 -74t-72 -30q-44 0 -74 30t-30 74zM536 896q0 42 30 72t74 30q42 0 72 -30t30 -72 q0 -44 -30 -74t-72 -30q-44 0 -74 30t-30 74zM536 1664q0 42 30 72t74 30q42 0 72 -30t30 -72q0 -44 -30 -74t-72 -30q-44 0 -74 30t-30 74zM792 128q0 42 30 72t74 30q42 0 72 -30t30 -72q0 -44 -30 -74t-72 -30q-44 0 -74 30t-30 74zM792 896q0 42 30 72t74 30 q42 0 72 -30t30 -72q0 -44 -30 -74t-72 -30q-44 0 -74 30t-30 74zM792 1664q0 42 30 72t74 30q42 0 72 -30t30 -72q0 -44 -30 -74t-72 -30q-44 0 -74 30t-30 74zM1048 384q0 42 30 72t74 30q42 0 72 -30t30 -72q0 -44 -30 -74t-72 -30q-44 0 -74 30t-30 74zM1048 640 q0 42 30 72t74 30q42 0 72 -30t30 -72q0 -44 -30 -74t-72 -30q-44 0 -74 30t-30 74zM1048 1152q0 42 30 72t74 30q42 0 72 -30t30 -72q0 -44 -30 -74t-72 -30q-44 0 -74 30t-30 74zM1048 1408q0 42 30 72t74 30q42 0 72 -30t30 -72q0 -44 -30 -74t-72 -30q-44 0 -74 30 t-30 74z" />
<glyph unicode="C" d="M24 384q0 42 30 72t74 30q42 0 72 -30t30 -72q0 -44 -30 -74t-72 -30q-44 0 -74 30t-30 74zM24 640q0 42 30 72t74 30q42 0 72 -30t30 -72q0 -44 -30 -74t-72 -30q-44 0 -74 30t-30 74zM24 896q0 42 30 72t74 30q42 0 72 -30t30 -72q0 -44 -30 -74t-72 -30q-44 0 -74 30 t-30 74zM24 1152q0 42 30 72t74 30q42 0 72 -30t30 -72q0 -44 -30 -74t-72 -30q-44 0 -74 30t-30 74zM24 1408q0 42 30 72t74 30q42 0 72 -30t30 -72q0 -44 -30 -74t-72 -30q-44 0 -74 30t-30 74zM280 128q0 42 30 72t74 30q42 0 72 -30t30 -72q0 -44 -30 -74t-72 -30 q-44 0 -74 30t-30 74zM280 1664q0 42 30 72t74 30q42 0 72 -30t30 -72q0 -44 -30 -74t-72 -30q-44 0 -74 30t-30 74zM536 128q0 42 30 72t74 30q42 0 72 -30t30 -72q0 -44 -30 -74t-72 -30q-44 0 -74 30t-30 74zM536 1664q0 42 30 72t74 30q42 0 72 -30t30 -72 q0 -44 -30 -74t-72 -30q-44 0 -74 30t-30 74zM792 128q0 42 30 72t74 30q42 0 72 -30t30 -72q0 -44 -30 -74t-72 -30q-44 0 -74 30t-30 74zM792 1664q0 42 30 72t74 30q42 0 72 -30t30 -72q0 -44 -30 -74t-72 -30q-44 0 -74 30t-30 74zM1048 384q0 42 30 72t74 30 q42 0 72 -30t30 -72q0 -44 -30 -74t-72 -30q-44 0 -74 30t-30 74zM1048 1408q0 42 30 72t74 30q42 0 72 -30t30 -72q0 -44 -30 -74t-72 -30q-44 0 -74 30t-30 74z" />
<glyph unicode="D" d="M24 128q0 42 30 72t74 30q42 0 72 -30t30 -72q0 -44 -30 -74t-72 -30q-44 0 -74 30t-30 74zM24 384q0 42 30 72t74 30q42 0 72 -30t30 -72q0 -44 -30 -74t-72 -30q-44 0 -74 30t-30 74zM24 640q0 42 30 72t74 30q42 0 72 -30t30 -72q0 -44 -30 -74t-72 -30q-44 0 -74 30 t-30 74zM24 896q0 42 30 72t74 30q42 0 72 -30t30 -72q0 -44 -30 -74t-72 -30q-44 0 -74 30t-30 74zM24 1152q0 42 30 72t74 30q42 0 72 -30t30 -72q0 -44 -30 -74t-72 -30q-44 0 -74 30t-30 74zM24 1408q0 42 30 72t74 30q42 0 72 -30t30 -72q0 -44 -30 -74t-72 -30 q-44 0 -74 30t-30 74zM24 1664q0 42 30 72t74 30q42 0 72 -30t30 -72q0 -44 -30 -74t-72 -30q-44 0 -74 30t-30 74zM280 128q0 42 30 72t74 30q42 0 72 -30t30 -72q0 -44 -30 -74t-72 -30q-44 0 -74 30t-30 74zM280 1664q0 42 30 72t74 30q42 0 72 -30t30 -72q0 -44 -30 -74 t-72 -30q-44 0 -74 30t-30 74zM536 128q0 42 30 72t74 30q42 0 72 -30t30 -72q0 -44 -30 -74t-72 -30q-44 0 -74 30t-30 74zM536 1664q0 42 30 72t74 30q42 0 72 -30t30 -72q0 -44 -30 -74t-72 -30q-44 0 -74 30t-30 74zM792 128q0 42 30 72t74 30q42 0 72 -30t30 -72 q0 -44 -30 -74t-72 -30q-44 0 -74 30t-30 74zM792 1664q0 42 30 72t74 30q42 0 72 -30t30 -72q0 -44 -30 -74t-72 -30q-44 0 -74 30t-30 74zM1048 384q0 42 30 72t74 30q42 0 72 -30t30 -72q0 -44 -30 -74t-72 -30q-44 0 -74 30t-30 74zM1048 640q0 42 30 72t74 30 q42 0 72 -30t30 -72q0 -44 -30 -74t-72 -30q-44 0 -74 30t-30 74zM1048 896q0 42 30 72t74 30q42 0 72 -30t30 -72q0 -44 -30 -74t-72 -30q-44 0 -74 30t-30 74zM1048 1152q0 42 30 72t74 30q42 0 72 -30t30 -72q0 -44 -30 -74t-72 -30q-44 0 -74 30t-30 74zM1048 1408 q0 42 30 72t74 30q42 0 72 -30t30 -72q0 -44 -30 -74t-72 -30q-44 0 -74 30t-30 74z" />
<glyph unicode="E" d="M24 128q0 42 30 72t74 30q42 0 72 -30t30 -72q0 -44 -30 -74t-72 -30q-44 0 -74 30t-30 74zM24 384q0 42 30 72t74 30q42 0 72 -30t30 -72q0 -44 -30 -74t-72 -30q-44 0 -74 30t-30 74zM24 640q0 42 30 72t74 30q42 0 72 -30t30 -72q0 -44 -30 -74t-72 -30q-44 0 -74 30 t-30 74zM24 896q0 42 30 72t74 30q42 0 72 -30t30 -72q0 -44 -30 -74t-72 -30q-44 0 -74 30t-30 74zM24 1152q0 42 30 72t74 30q42 0 72 -30t30 -72q0 -44 -30 -74t-72 -30q-44 0 -74 30t-30 74zM24 1408q0 42 30 72t74 30q42 0 72 -30t30 -72q0 -44 -30 -74t-72 -30 q-44 0 -74 30t-30 74zM24 1664q0 42 30 72t74 30q42 0 72 -30t30 -72q0 -44 -30 -74t-72 -30q-44 0 -74 30t-30 74zM280 128q0 42 30 72t74 30q42 0 72 -30t30 -72q0 -44 -30 -74t-72 -30q-44 0 -74 30t-30 74zM280 896q0 42 30 72t74 30q42 0 72 -30t30 -72q0 -44 -30 -74 t-72 -30q-44 0 -74 30t-30 74zM280 1664q0 42 30 72t74 30q42 0 72 -30t30 -72q0 -44 -30 -74t-72 -30q-44 0 -74 30t-30 74zM536 128q0 42 30 72t74 30q42 0 72 -30t30 -72q0 -44 -30 -74t-72 -30q-44 0 -74 30t-30 74zM536 896q0 42 30 72t74 30q42 0 72 -30t30 -72 q0 -44 -30 -74t-72 -30q-44 0 -74 30t-30 74zM536 1664q0 42 30 72t74 30q42 0 72 -30t30 -72q0 -44 -30 -74t-72 -30q-44 0 -74 30t-30 74zM792 128q0 42 30 72t74 30q42 0 72 -30t30 -72q0 -44 -30 -74t-72 -30q-44 0 -74 30t-30 74zM792 896q0 42 30 72t74 30 q42 0 72 -30t30 -72q0 -44 -30 -74t-72 -30q-44 0 -74 30t-30 74zM792 1664q0 42 30 72t74 30q42 0 72 -30t30 -72q0 -44 -30 -74t-72 -30q-44 0 -74 30t-30 74zM1048 128q0 42 30 72t74 30q42 0 72 -30t30 -72q0 -44 -30 -74t-72 -30q-44 0 -74 30t-30 74zM1048 1664 q0 42 30 72t74 30q42 0 72 -30t30 -72q0 -44 -30 -74t-72 -30q-44 0 -74 30t-30 74z" />
<glyph unicode="F" d="M24 128q0 42 30 72t74 30q42 0 72 -30t30 -72q0 -44 -30 -74t-72 -30q-44 0 -74 30t-30 74zM24 384q0 42 30 72t74 30q42 0 72 -30t30 -72q0 -44 -30 -74t-72 -30q-44 0 -74 30t-30 74zM24 640q0 42 30 72t74 30q42 0 72 -30t30 -72q0 -44 -30 -74t-72 -30q-44 0 -74 30 t-30 74zM24 896q0 42 30 72t74 30q42 0 72 -30t30 -72q0 -44 -30 -74t-72 -30q-44 0 -74 30t-30 74zM24 1152q0 42 30 72t74 30q42 0 72 -30t30 -72q0 -44 -30 -74t-72 -30q-44 0 -74 30t-30 74zM24 1408q0 42 30 72t74 30q42 0 72 -30t30 -72q0 -44 -30 -74t-72 -30 q-44 0 -74 30t-30 74zM24 1664q0 42 30 72t74 30q42 0 72 -30t30 -72q0 -44 -30 -74t-72 -30q-44 0 -74 30t-30 74zM280 896q0 42 30 72t74 30q42 0 72 -30t30 -72q0 -44 -30 -74t-72 -30q-44 0 -74 30t-30 74zM280 1664q0 42 30 72t74 30q42 0 72 -30t30 -72q0 -44 -30 -74 t-72 -30q-44 0 -74 30t-30 74zM536 896q0 42 30 72t74 30q42 0 72 -30t30 -72q0 -44 -30 -74t-72 -30q-44 0 -74 30t-30 74zM536 1664q0 42 30 72t74 30q42 0 72 -30t30 -72q0 -44 -30 -74t-72 -30q-44 0 -74 30t-30 74zM792 896q0 42 30 72t74 30q42 0 72 -30t30 -72 q0 -44 -30 -74t-72 -30q-44 0 -74 30t-30 74zM792 1664q0 42 30 72t74 30q42 0 72 -30t30 -72q0 -44 -30 -74t-72 -30q-44 0 -74 30t-30 74zM1048 1664q0 42 30 72t74 30q42 0 72 -30t30 -72q0 -44 -30 -74t-72 -30q-44 0 -74 30t-30 74z" />
<glyph unicode="G" d="M24 384q0 42 30 72t74 30q42 0 72 -30t30 -72q0 -44 -30 -74t-72 -30q-44 0 -74 30t-30 74zM24 640q0 42 30 72t74 30q42 0 72 -30t30 -72q0 -44 -30 -74t-72 -30q-44 0 -74 30t-30 74zM24 896q0 42 30 72t74 30q42 0 72 -30t30 -72q0 -44 -30 -74t-72 -30q-44 0 -74 30 t-30 74zM24 1152q0 42 30 72t74 30q42 0 72 -30t30 -72q0 -44 -30 -74t-72 -30q-44 0 -74 30t-30 74zM24 1408q0 42 30 72t74 30q42 0 72 -30t30 -72q0 -44 -30 -74t-72 -30q-44 0 -74 30t-30 74zM280 128q0 42 30 72t74 30q42 0 72 -30t30 -72q0 -44 -30 -74t-72 -30 q-44 0 -74 30t-30 74zM280 1664q0 42 30 72t74 30q42 0 72 -30t30 -72q0 -44 -30 -74t-72 -30q-44 0 -74 30t-30 74zM536 128q0 42 30 72t74 30q42 0 72 -30t30 -72q0 -44 -30 -74t-72 -30q-44 0 -74 30t-30 74zM536 896q0 42 30 72t74 30q42 0 72 -30t30 -72q0 -44 -30 -74 t-72 -30q-44 0 -74 30t-30 74zM536 1664q0 42 30 72t74 30q42 0 72 -30t30 -72q0 -44 -30 -74t-72 -30q-44 0 -74 30t-30 74zM792 128q0 42 30 72t74 30q42 0 72 -30t30 -72q0 -44 -30 -74t-72 -30q-44 0 -74 30t-30 74zM792 896q0 42 30 72t74 30q42 0 72 -30t30 -72 q0 -44 -30 -74t-72 -30q-44 0 -74 30t-30 74zM792 1664q0 42 30 72t74 30q42 0 72 -30t30 -72q0 -44 -30 -74t-72 -30q-44 0 -74 30t-30 74zM1048 384q0 42 30 72t74 30q42 0 72 -30t30 -72q0 -44 -30 -74t-72 -30q-44 0 -74 30t-30 74zM1048 640q0 42 30 72t74 30 q42 0 72 -30t30 -72q0 -44 -30 -74t-72 -30q-44 0 -74 30t-30 74zM1048 896q0 42 30 72t74 30q42 0 72 -30t30 -72q0 -44 -30 -74t-72 -30q-44 0 -74 30t-30 74zM1048 1408q0 42 30 72t74 30q42 0 72 -30t30 -72q0 -44 -30 -74t-72 -30q-44 0 -74 30t-30 74z" />
<glyph unicode="H" d="M24 128q0 42 30 72t74 30q42 0 72 -30t30 -72q0 -44 -30 -74t-72 -30q-44 0 -74 30t-30 74zM24 384q0 42 30 72t74 30q42 0 72 -30t30 -72q0 -44 -30 -74t-72 -30q-44 0 -74 30t-30 74zM24 640q0 42 30 72t74 30q42 0 72 -30t30 -72q0 -44 -30 -74t-72 -30q-44 0 -74 30 t-30 74zM24 896q0 42 30 72t74 30q42 0 72 -30t30 -72q0 -44 -30 -74t-72 -30q-44 0 -74 30t-30 74zM24 1152q0 42 30 72t74 30q42 0 72 -30t30 -72q0 -44 -30 -74t-72 -30q-44 0 -74 30t-30 74zM24 1408q0 42 30 72t74 30q42 0 72 -30t30 -72q0 -44 -30 -74t-72 -30 q-44 0 -74 30t-30 74zM24 1664q0 42 30 72t74 30q42 0 72 -30t30 -72q0 -44 -30 -74t-72 -30q-44 0 -74 30t-30 74zM280 896q0 42 30 72t74 30q42 0 72 -30t30 -72q0 -44 -30 -74t-72 -30q-44 0 -74 30t-30 74zM536 896q0 42 30 72t74 30q42 0 72 -30t30 -72q0 -44 -30 -74 t-72 -30q-44 0 -74 30t-30 74zM792 896q0 42 30 72t74 30q42 0 72 -30t30 -72q0 -44 -30 -74t-72 -30q-44 0 -74 30t-30 74zM1048 128q0 42 30 72t74 30q42 0 72 -30t30 -72q0 -44 -30 -74t-72 -30q-44 0 -74 30t-30 74zM1048 384q0 42 30 72t74 30q42 0 72 -30t30 -72 q0 -44 -30 -74t-72 -30q-44 0 -74 30t-30 74zM1048 640q0 42 30 72t74 30q42 0 72 -30t30 -72q0 -44 -30 -74t-72 -30q-44 0 -74 30t-30 74zM1048 896q0 42 30 72t74 30q42 0 72 -30t30 -72q0 -44 -30 -74t-72 -30q-44 0 -74 30t-30 74zM1048 1152q0 42 30 72t74 30 q42 0 72 -30t30 -72q0 -44 -30 -74t-72 -30q-44 0 -74 30t-30 74zM1048 1408q0 42 30 72t74 30q42 0 72 -30t30 -72q0 -44 -30 -74t-72 -30q-44 0 -74 30t-30 74zM1048 1664q0 42 30 72t74 30q42 0 72 -30t30 -72q0 -44 -30 -74t-72 -30q-44 0 -74 30t-30 74z" />
<glyph unicode="I" d="M24 128q0 42 30 72t74 30q42 0 72 -30t30 -72q0 -44 -30 -74t-72 -30q-44 0 -74 30t-30 74zM24 1664q0 42 30 72t74 30q42 0 72 -30t30 -72q0 -44 -30 -74t-72 -30q-44 0 -74 30t-30 74zM280 128q0 42 30 72t74 30q42 0 72 -30t30 -72q0 -44 -30 -74t-72 -30 q-44 0 -74 30t-30 74zM280 1664q0 42 30 72t74 30q42 0 72 -30t30 -72q0 -44 -30 -74t-72 -30q-44 0 -74 30t-30 74zM536 128q0 42 30 72t74 30q42 0 72 -30t30 -72q0 -44 -30 -74t-72 -30q-44 0 -74 30t-30 74zM536 384q0 42 30 72t74 30q42 0 72 -30t30 -72q0 -44 -30 -74 t-72 -30q-44 0 -74 30t-30 74zM536 640q0 42 30 72t74 30q42 0 72 -30t30 -72q0 -44 -30 -74t-72 -30q-44 0 -74 30t-30 74zM536 896q0 42 30 72t74 30q42 0 72 -30t30 -72q0 -44 -30 -74t-72 -30q-44 0 -74 30t-30 74zM536 1152q0 42 30 72t74 30q42 0 72 -30t30 -72 q0 -44 -30 -74t-72 -30q-44 0 -74 30t-30 74zM536 1408q0 42 30 72t74 30q42 0 72 -30t30 -72q0 -44 -30 -74t-72 -30q-44 0 -74 30t-30 74zM536 1664q0 42 30 72t74 30q42 0 72 -30t30 -72q0 -44 -30 -74t-72 -30q-44 0 -74 30t-30 74zM792 128q0 42 30 72t74 30 q42 0 72 -30t30 -72q0 -44 -30 -74t-72 -30q-44 0 -74 30t-30 74zM792 1664q0 42 30 72t74 30q42 0 72 -30t30 -72q0 -44 -30 -74t-72 -30q-44 0 -74 30t-30 74zM1048 128q0 42 30 72t74 30q42 0 72 -30t30 -72q0 -44 -30 -74t-72 -30q-44 0 -74 30t-30 74zM1048 1664 q0 42 30 72t74 30q42 0 72 -30t30 -72q0 -44 -30 -74t-72 -30q-44 0 -74 30t-30 74z" />
<glyph unicode="J" d="M24 384q0 42 30 72t74 30q42 0 72 -30t30 -72q0 -44 -30 -74t-72 -30q-44 0 -74 30t-30 74zM280 128q0 42 30 72t74 30q42 0 72 -30t30 -72q0 -44 -30 -74t-72 -30q-44 0 -74 30t-30 74zM536 128q0 42 30 72t74 30q42 0 72 -30t30 -72q0 -44 -30 -74t-72 -30 q-44 0 -74 30t-30 74zM536 1664q0 42 30 72t74 30q42 0 72 -30t30 -72q0 -44 -30 -74t-72 -30q-44 0 -74 30t-30 74zM792 384q0 42 30 72t74 30q42 0 72 -30t30 -72q0 -44 -30 -74t-72 -30q-44 0 -74 30t-30 74zM792 640q0 42 30 72t74 30q42 0 72 -30t30 -72q0 -44 -30 -74 t-72 -30q-44 0 -74 30t-30 74zM792 896q0 42 30 72t74 30q42 0 72 -30t30 -72q0 -44 -30 -74t-72 -30q-44 0 -74 30t-30 74zM792 1152q0 42 30 72t74 30q42 0 72 -30t30 -72q0 -44 -30 -74t-72 -30q-44 0 -74 30t-30 74zM792 1408q0 42 30 72t74 30q42 0 72 -30t30 -72 q0 -44 -30 -74t-72 -30q-44 0 -74 30t-30 74zM792 1664q0 42 30 72t74 30q42 0 72 -30t30 -72q0 -44 -30 -74t-72 -30q-44 0 -74 30t-30 74zM1048 1664q0 42 30 72t74 30q42 0 72 -30t30 -72q0 -44 -30 -74t-72 -30q-44 0 -74 30t-30 74z" />
<glyph unicode="K" d="M24 128q0 42 30 72t74 30q42 0 72 -30t30 -72q0 -44 -30 -74t-72 -30q-44 0 -74 30t-30 74zM24 384q0 42 30 72t74 30q42 0 72 -30t30 -72q0 -44 -30 -74t-72 -30q-44 0 -74 30t-30 74zM24 640q0 42 30 72t74 30q42 0 72 -30t30 -72q0 -44 -30 -74t-72 -30q-44 0 -74 30 t-30 74zM24 896q0 42 30 72t74 30q42 0 72 -30t30 -72q0 -44 -30 -74t-72 -30q-44 0 -74 30t-30 74zM24 1152q0 42 30 72t74 30q42 0 72 -30t30 -72q0 -44 -30 -74t-72 -30q-44 0 -74 30t-30 74zM24 1408q0 42 30 72t74 30q42 0 72 -30t30 -72q0 -44 -30 -74t-72 -30 q-44 0 -74 30t-30 74zM24 1664q0 42 30 72t74 30q42 0 72 -30t30 -72q0 -44 -30 -74t-72 -30q-44 0 -74 30t-30 74zM280 896q0 42 30 72t74 30q42 0 72 -30t30 -72q0 -44 -30 -74t-72 -30q-44 0 -74 30t-30 74zM536 640q0 42 30 72t74 30q42 0 72 -30t30 -72q0 -44 -30 -74 t-72 -30q-44 0 -74 30t-30 74zM536 1152q0 42 30 72t74 30q42 0 72 -30t30 -72q0 -44 -30 -74t-72 -30q-44 0 -74 30t-30 74zM792 384q0 42 30 72t74 30q42 0 72 -30t30 -72q0 -44 -30 -74t-72 -30q-44 0 -74 30t-30 74zM792 1408q0 42 30 72t74 30q42 0 72 -30t30 -72 q0 -44 -30 -74t-72 -30q-44 0 -74 30t-30 74zM1048 128q0 42 30 72t74 30q42 0 72 -30t30 -72q0 -44 -30 -74t-72 -30q-44 0 -74 30t-30 74zM1048 1664q0 42 30 72t74 30q42 0 72 -30t30 -72q0 -44 -30 -74t-72 -30q-44 0 -74 30t-30 74z" />
<glyph unicode="L" d="M24 128q0 42 30 72t74 30q42 0 72 -30t30 -72q0 -44 -30 -74t-72 -30q-44 0 -74 30t-30 74zM24 384q0 42 30 72t74 30q42 0 72 -30t30 -72q0 -44 -30 -74t-72 -30q-44 0 -74 30t-30 74zM24 640q0 42 30 72t74 30q42 0 72 -30t30 -72q0 -44 -30 -74t-72 -30q-44 0 -74 30 t-30 74zM24 896q0 42 30 72t74 30q42 0 72 -30t30 -72q0 -44 -30 -74t-72 -30q-44 0 -74 30t-30 74zM24 1152q0 42 30 72t74 30q42 0 72 -30t30 -72q0 -44 -30 -74t-72 -30q-44 0 -74 30t-30 74zM24 1408q0 42 30 72t74 30q42 0 72 -30t30 -72q0 -44 -30 -74t-72 -30 q-44 0 -74 30t-30 74zM24 1664q0 42 30 72t74 30q42 0 72 -30t30 -72q0 -44 -30 -74t-72 -30q-44 0 -74 30t-30 74zM280 128q0 42 30 72t74 30q42 0 72 -30t30 -72q0 -44 -30 -74t-72 -30q-44 0 -74 30t-30 74zM536 128q0 42 30 72t74 30q42 0 72 -30t30 -72q0 -44 -30 -74 t-72 -30q-44 0 -74 30t-30 74zM792 128q0 42 30 72t74 30q42 0 72 -30t30 -72q0 -44 -30 -74t-72 -30q-44 0 -74 30t-30 74zM1048 128q0 42 30 72t74 30q42 0 72 -30t30 -72q0 -44 -30 -74t-72 -30q-44 0 -74 30t-30 74z" />
<glyph unicode="M" d="M24 128q0 42 30 72t74 30q42 0 72 -30t30 -72q0 -44 -30 -74t-72 -30q-44 0 -74 30t-30 74zM24 384q0 42 30 72t74 30q42 0 72 -30t30 -72q0 -44 -30 -74t-72 -30q-44 0 -74 30t-30 74zM24 640q0 42 30 72t74 30q42 0 72 -30t30 -72q0 -44 -30 -74t-72 -30q-44 0 -74 30 t-30 74zM24 896q0 42 30 72t74 30q42 0 72 -30t30 -72q0 -44 -30 -74t-72 -30q-44 0 -74 30t-30 74zM24 1152q0 42 30 72t74 30q42 0 72 -30t30 -72q0 -44 -30 -74t-72 -30q-44 0 -74 30t-30 74zM24 1408q0 42 30 72t74 30q42 0 72 -30t30 -72q0 -44 -30 -74t-72 -30 q-44 0 -74 30t-30 74zM24 1664q0 42 30 72t74 30q42 0 72 -30t30 -72q0 -44 -30 -74t-72 -30q-44 0 -74 30t-30 74zM280 1408q0 42 30 72t74 30q42 0 72 -30t30 -72q0 -44 -30 -74t-72 -30q-44 0 -74 30t-30 74zM536 1152q0 42 30 72t74 30q42 0 72 -30t30 -72 q0 -44 -30 -74t-72 -30q-44 0 -74 30t-30 74zM792 1408q0 42 30 72t74 30q42 0 72 -30t30 -72q0 -44 -30 -74t-72 -30q-44 0 -74 30t-30 74zM1048 128q0 42 30 72t74 30q42 0 72 -30t30 -72q0 -44 -30 -74t-72 -30q-44 0 -74 30t-30 74zM1048 384q0 42 30 72t74 30 q42 0 72 -30t30 -72q0 -44 -30 -74t-72 -30q-44 0 -74 30t-30 74zM1048 640q0 42 30 72t74 30q42 0 72 -30t30 -72q0 -44 -30 -74t-72 -30q-44 0 -74 30t-30 74zM1048 896q0 42 30 72t74 30q42 0 72 -30t30 -72q0 -44 -30 -74t-72 -30q-44 0 -74 30t-30 74zM1048 1152 q0 42 30 72t74 30q42 0 72 -30t30 -72q0 -44 -30 -74t-72 -30q-44 0 -74 30t-30 74zM1048 1408q0 42 30 72t74 30q42 0 72 -30t30 -72q0 -44 -30 -74t-72 -30q-44 0 -74 30t-30 74zM1048 1664q0 42 30 72t74 30q42 0 72 -30t30 -72q0 -44 -30 -74t-72 -30q-44 0 -74 30 t-30 74z" />
<glyph unicode="N" d="M24 128q0 42 30 72t74 30q42 0 72 -30t30 -72q0 -44 -30 -74t-72 -30q-44 0 -74 30t-30 74zM24 384q0 42 30 72t74 30q42 0 72 -30t30 -72q0 -44 -30 -74t-72 -30q-44 0 -74 30t-30 74zM24 640q0 42 30 72t74 30q42 0 72 -30t30 -72q0 -44 -30 -74t-72 -30q-44 0 -74 30 t-30 74zM24 896q0 42 30 72t74 30q42 0 72 -30t30 -72q0 -44 -30 -74t-72 -30q-44 0 -74 30t-30 74zM24 1152q0 42 30 72t74 30q42 0 72 -30t30 -72q0 -44 -30 -74t-72 -30q-44 0 -74 30t-30 74zM24 1408q0 42 30 72t74 30q42 0 72 -30t30 -72q0 -44 -30 -74t-72 -30 q-44 0 -74 30t-30 74zM24 1664q0 42 30 72t74 30q42 0 72 -30t30 -72q0 -44 -30 -74t-72 -30q-44 0 -74 30t-30 74zM280 1408q0 42 30 72t74 30q42 0 72 -30t30 -72q0 -44 -30 -74t-72 -30q-44 0 -74 30t-30 74zM536 1152q0 42 30 72t74 30q42 0 72 -30t30 -72 q0 -44 -30 -74t-72 -30q-44 0 -74 30t-30 74zM792 896q0 42 30 72t74 30q42 0 72 -30t30 -72q0 -44 -30 -74t-72 -30q-44 0 -74 30t-30 74zM1048 128q0 42 30 72t74 30q42 0 72 -30t30 -72q0 -44 -30 -74t-72 -30q-44 0 -74 30t-30 74zM1048 384q0 42 30 72t74 30 q42 0 72 -30t30 -72q0 -44 -30 -74t-72 -30q-44 0 -74 30t-30 74zM1048 640q0 42 30 72t74 30q42 0 72 -30t30 -72q0 -44 -30 -74t-72 -30q-44 0 -74 30t-30 74zM1048 896q0 42 30 72t74 30q42 0 72 -30t30 -72q0 -44 -30 -74t-72 -30q-44 0 -74 30t-30 74zM1048 1152 q0 42 30 72t74 30q42 0 72 -30t30 -72q0 -44 -30 -74t-72 -30q-44 0 -74 30t-30 74zM1048 1408q0 42 30 72t74 30q42 0 72 -30t30 -72q0 -44 -30 -74t-72 -30q-44 0 -74 30t-30 74zM1048 1664q0 42 30 72t74 30q42 0 72 -30t30 -72q0 -44 -30 -74t-72 -30q-44 0 -74 30 t-30 74z" />
<glyph unicode="O" d="M24 384q0 42 30 72t74 30q42 0 72 -30t30 -72q0 -44 -30 -74t-72 -30q-44 0 -74 30t-30 74zM24 640q0 42 30 72t74 30q42 0 72 -30t30 -72q0 -44 -30 -74t-72 -30q-44 0 -74 30t-30 74zM24 896q0 42 30 72t74 30q42 0 72 -30t30 -72q0 -44 -30 -74t-72 -30q-44 0 -74 30 t-30 74zM24 1152q0 42 30 72t74 30q42 0 72 -30t30 -72q0 -44 -30 -74t-72 -30q-44 0 -74 30t-30 74zM24 1408q0 42 30 72t74 30q42 0 72 -30t30 -72q0 -44 -30 -74t-72 -30q-44 0 -74 30t-30 74zM280 128q0 42 30 72t74 30q42 0 72 -30t30 -72q0 -44 -30 -74t-72 -30 q-44 0 -74 30t-30 74zM280 1664q0 42 30 72t74 30q42 0 72 -30t30 -72q0 -44 -30 -74t-72 -30q-44 0 -74 30t-30 74zM536 128q0 42 30 72t74 30q42 0 72 -30t30 -72q0 -44 -30 -74t-72 -30q-44 0 -74 30t-30 74zM536 1664q0 42 30 72t74 30q42 0 72 -30t30 -72 q0 -44 -30 -74t-72 -30q-44 0 -74 30t-30 74zM792 128q0 42 30 72t74 30q42 0 72 -30t30 -72q0 -44 -30 -74t-72 -30q-44 0 -74 30t-30 74zM792 1664q0 42 30 72t74 30q42 0 72 -30t30 -72q0 -44 -30 -74t-72 -30q-44 0 -74 30t-30 74zM1048 384q0 42 30 72t74 30 q42 0 72 -30t30 -72q0 -44 -30 -74t-72 -30q-44 0 -74 30t-30 74zM1048 640q0 42 30 72t74 30q42 0 72 -30t30 -72q0 -44 -30 -74t-72 -30q-44 0 -74 30t-30 74zM1048 896q0 42 30 72t74 30q42 0 72 -30t30 -72q0 -44 -30 -74t-72 -30q-44 0 -74 30t-30 74zM1048 1152 q0 42 30 72t74 30q42 0 72 -30t30 -72q0 -44 -30 -74t-72 -30q-44 0 -74 30t-30 74zM1048 1408q0 42 30 72t74 30q42 0 72 -30t30 -72q0 -44 -30 -74t-72 -30q-44 0 -74 30t-30 74z" />
<glyph unicode="P" d="M24 128q0 42 30 72t74 30q42 0 72 -30t30 -72q0 -44 -30 -74t-72 -30q-44 0 -74 30t-30 74zM24 384q0 42 30 72t74 30q42 0 72 -30t30 -72q0 -44 -30 -74t-72 -30q-44 0 -74 30t-30 74zM24 640q0 42 30 72t74 30q42 0 72 -30t30 -72q0 -44 -30 -74t-72 -30q-44 0 -74 30 t-30 74zM24 896q0 42 30 72t74 30q42 0 72 -30t30 -72q0 -44 -30 -74t-72 -30q-44 0 -74 30t-30 74zM24 1152q0 42 30 72t74 30q42 0 72 -30t30 -72q0 -44 -30 -74t-72 -30q-44 0 -74 30t-30 74zM24 1408q0 42 30 72t74 30q42 0 72 -30t30 -72q0 -44 -30 -74t-72 -30 q-44 0 -74 30t-30 74zM24 1664q0 42 30 72t74 30q42 0 72 -30t30 -72q0 -44 -30 -74t-72 -30q-44 0 -74 30t-30 74zM280 896q0 42 30 72t74 30q42 0 72 -30t30 -72q0 -44 -30 -74t-72 -30q-44 0 -74 30t-30 74zM280 1664q0 42 30 72t74 30q42 0 72 -30t30 -72q0 -44 -30 -74 t-72 -30q-44 0 -74 30t-30 74zM536 896q0 42 30 72t74 30q42 0 72 -30t30 -72q0 -44 -30 -74t-72 -30q-44 0 -74 30t-30 74zM536 1664q0 42 30 72t74 30q42 0 72 -30t30 -72q0 -44 -30 -74t-72 -30q-44 0 -74 30t-30 74zM792 896q0 42 30 72t74 30q42 0 72 -30t30 -72 q0 -44 -30 -74t-72 -30q-44 0 -74 30t-30 74zM792 1664q0 42 30 72t74 30q42 0 72 -30t30 -72q0 -44 -30 -74t-72 -30q-44 0 -74 30t-30 74zM1048 1152q0 42 30 72t74 30q42 0 72 -30t30 -72q0 -44 -30 -74t-72 -30q-44 0 -74 30t-30 74zM1048 1408q0 42 30 72t74 30 q42 0 72 -30t30 -72q0 -44 -30 -74t-72 -30q-44 0 -74 30t-30 74z" />
<glyph unicode="Q" horiz-adv-x="1790" d="M24 384q0 42 30 72t74 30q42 0 72 -30t30 -72q0 -44 -30 -74t-72 -30q-44 0 -74 30t-30 74zM24 640q0 42 30 72t74 30q42 0 72 -30t30 -72q0 -44 -30 -74t-72 -30q-44 0 -74 30t-30 74zM24 896q0 42 30 72t74 30q42 0 72 -30t30 -72q0 -44 -30 -74t-72 -30q-44 0 -74 30 t-30 74zM24 1152q0 42 30 72t74 30q42 0 72 -30t30 -72q0 -44 -30 -74t-72 -30q-44 0 -74 30t-30 74zM24 1408q0 42 30 72t74 30q42 0 72 -30t30 -72q0 -44 -30 -74t-72 -30q-44 0 -74 30t-30 74zM280 128q0 42 30 72t74 30q42 0 72 -30t30 -72q0 -44 -30 -74t-72 -30 q-44 0 -74 30t-30 74zM280 1664q0 42 30 72t74 30q42 0 72 -30t30 -72q0 -44 -30 -74t-72 -30q-44 0 -74 30t-30 74zM536 128q0 42 30 72t74 30q42 0 72 -30t30 -72q0 -44 -30 -74t-72 -30q-44 0 -74 30t-30 74zM536 1664q0 42 30 72t74 30q42 0 72 -30t30 -72 q0 -44 -30 -74t-72 -30q-44 0 -74 30t-30 74zM792 128q0 42 30 72t74 30q42 0 72 -30t30 -72q0 -44 -30 -74t-72 -30q-44 0 -74 30t-30 74zM792 1664q0 42 30 72t74 30q42 0 72 -30t30 -72q0 -44 -30 -74t-72 -30q-44 0 -74 30t-30 74zM1048 384q0 42 30 72t74 30 q42 0 72 -30t30 -72q0 -44 -30 -74t-72 -30q-44 0 -74 30t-30 74zM1048 640q0 42 30 72t74 30q42 0 72 -30t30 -72q0 -44 -30 -74t-72 -30q-44 0 -74 30t-30 74zM1048 896q0 42 30 72t74 30q42 0 72 -30t30 -72q0 -44 -30 -74t-72 -30q-44 0 -74 30t-30 74zM1048 1152 q0 42 30 72t74 30q42 0 72 -30t30 -72q0 -44 -30 -74t-72 -30q-44 0 -74 30t-30 74zM1048 1408q0 42 30 72t74 30q42 0 72 -30t30 -72q0 -44 -30 -74t-72 -30q-44 0 -74 30t-30 74zM1304 128q0 42 30 72t74 30q42 0 72 -30t30 -72q0 -44 -30 -74t-72 -30q-44 0 -74 30 t-30 74z" />
<glyph unicode="R" d="M24 128q0 42 30 72t74 30q42 0 72 -30t30 -72q0 -44 -30 -74t-72 -30q-44 0 -74 30t-30 74zM24 384q0 42 30 72t74 30q42 0 72 -30t30 -72q0 -44 -30 -74t-72 -30q-44 0 -74 30t-30 74zM24 640q0 42 30 72t74 30q42 0 72 -30t30 -72q0 -44 -30 -74t-72 -30q-44 0 -74 30 t-30 74zM24 896q0 42 30 72t74 30q42 0 72 -30t30 -72q0 -44 -30 -74t-72 -30q-44 0 -74 30t-30 74zM24 1152q0 42 30 72t74 30q42 0 72 -30t30 -72q0 -44 -30 -74t-72 -30q-44 0 -74 30t-30 74zM24 1408q0 42 30 72t74 30q42 0 72 -30t30 -72q0 -44 -30 -74t-72 -30 q-44 0 -74 30t-30 74zM24 1664q0 42 30 72t74 30q42 0 72 -30t30 -72q0 -44 -30 -74t-72 -30q-44 0 -74 30t-30 74zM280 896q0 42 30 72t74 30q42 0 72 -30t30 -72q0 -44 -30 -74t-72 -30q-44 0 -74 30t-30 74zM280 1664q0 42 30 72t74 30q42 0 72 -30t30 -72q0 -44 -30 -74 t-72 -30q-44 0 -74 30t-30 74zM536 640q0 42 30 72t74 30q42 0 72 -30t30 -72q0 -44 -30 -74t-72 -30q-44 0 -74 30t-30 74zM536 896q0 42 30 72t74 30q42 0 72 -30t30 -72q0 -44 -30 -74t-72 -30q-44 0 -74 30t-30 74zM536 1664q0 42 30 72t74 30q42 0 72 -30t30 -72 q0 -44 -30 -74t-72 -30q-44 0 -74 30t-30 74zM792 384q0 42 30 72t74 30q42 0 72 -30t30 -72q0 -44 -30 -74t-72 -30q-44 0 -74 30t-30 74zM792 896q0 42 30 72t74 30q42 0 72 -30t30 -72q0 -44 -30 -74t-72 -30q-44 0 -74 30t-30 74zM792 1664q0 42 30 72t74 30 q42 0 72 -30t30 -72q0 -44 -30 -74t-72 -30q-44 0 -74 30t-30 74zM1048 128q0 42 30 72t74 30q42 0 72 -30t30 -72q0 -44 -30 -74t-72 -30q-44 0 -74 30t-30 74zM1048 1152q0 42 30 72t74 30q42 0 72 -30t30 -72q0 -44 -30 -74t-72 -30q-44 0 -74 30t-30 74zM1048 1408 q0 42 30 72t74 30q42 0 72 -30t30 -72q0 -44 -30 -74t-72 -30q-44 0 -74 30t-30 74z" />
<glyph unicode="S" d="M24 384q0 42 30 72t74 30q42 0 72 -30t30 -72q0 -44 -30 -74t-72 -30q-44 0 -74 30t-30 74zM24 1152q0 42 30 72t74 30q42 0 72 -30t30 -72q0 -44 -30 -74t-72 -30q-44 0 -74 30t-30 74zM24 1408q0 42 30 72t74 30q42 0 72 -30t30 -72q0 -44 -30 -74t-72 -30 q-44 0 -74 30t-30 74zM280 128q0 42 30 72t74 30q42 0 72 -30t30 -72q0 -44 -30 -74t-72 -30q-44 0 -74 30t-30 74zM280 896q0 42 30 72t74 30q42 0 72 -30t30 -72q0 -44 -30 -74t-72 -30q-44 0 -74 30t-30 74zM280 1664q0 42 30 72t74 30q42 0 72 -30t30 -72q0 -44 -30 -74 t-72 -30q-44 0 -74 30t-30 74zM536 128q0 42 30 72t74 30q42 0 72 -30t30 -72q0 -44 -30 -74t-72 -30q-44 0 -74 30t-30 74zM536 896q0 42 30 72t74 30q42 0 72 -30t30 -72q0 -44 -30 -74t-72 -30q-44 0 -74 30t-30 74zM536 1664q0 42 30 72t74 30q42 0 72 -30t30 -72 q0 -44 -30 -74t-72 -30q-44 0 -74 30t-30 74zM792 128q0 42 30 72t74 30q42 0 72 -30t30 -72q0 -44 -30 -74t-72 -30q-44 0 -74 30t-30 74zM792 896q0 42 30 72t74 30q42 0 72 -30t30 -72q0 -44 -30 -74t-72 -30q-44 0 -74 30t-30 74zM792 1664q0 42 30 72t74 30 q42 0 72 -30t30 -72q0 -44 -30 -74t-72 -30q-44 0 -74 30t-30 74zM1048 384q0 42 30 72t74 30q42 0 72 -30t30 -72q0 -44 -30 -74t-72 -30q-44 0 -74 30t-30 74zM1048 640q0 42 30 72t74 30q42 0 72 -30t30 -72q0 -44 -30 -74t-72 -30q-44 0 -74 30t-30 74zM1048 1408 q0 42 30 72t74 30q42 0 72 -30t30 -72q0 -44 -30 -74t-72 -30q-44 0 -74 30t-30 74z" />
<glyph unicode="T" d="M24 1664q0 42 30 72t74 30q42 0 72 -30t30 -72q0 -44 -30 -74t-72 -30q-44 0 -74 30t-30 74zM280 1664q0 42 30 72t74 30q42 0 72 -30t30 -72q0 -44 -30 -74t-72 -30q-44 0 -74 30t-30 74zM536 128q0 42 30 72t74 30q42 0 72 -30t30 -72q0 -44 -30 -74t-72 -30 q-44 0 -74 30t-30 74zM536 384q0 42 30 72t74 30q42 0 72 -30t30 -72q0 -44 -30 -74t-72 -30q-44 0 -74 30t-30 74zM536 640q0 42 30 72t74 30q42 0 72 -30t30 -72q0 -44 -30 -74t-72 -30q-44 0 -74 30t-30 74zM536 896q0 42 30 72t74 30q42 0 72 -30t30 -72q0 -44 -30 -74 t-72 -30q-44 0 -74 30t-30 74zM536 1152q0 42 30 72t74 30q42 0 72 -30t30 -72q0 -44 -30 -74t-72 -30q-44 0 -74 30t-30 74zM536 1408q0 42 30 72t74 30q42 0 72 -30t30 -72q0 -44 -30 -74t-72 -30q-44 0 -74 30t-30 74zM536 1664q0 42 30 72t74 30q42 0 72 -30t30 -72 q0 -44 -30 -74t-72 -30q-44 0 -74 30t-30 74zM792 1664q0 42 30 72t74 30q42 0 72 -30t30 -72q0 -44 -30 -74t-72 -30q-44 0 -74 30t-30 74zM1048 1664q0 42 30 72t74 30q42 0 72 -30t30 -72q0 -44 -30 -74t-72 -30q-44 0 -74 30t-30 74z" />
<glyph unicode="U" d="M24 384q0 42 30 72t74 30q42 0 72 -30t30 -72q0 -44 -30 -74t-72 -30q-44 0 -74 30t-30 74zM24 640q0 42 30 72t74 30q42 0 72 -30t30 -72q0 -44 -30 -74t-72 -30q-44 0 -74 30t-30 74zM24 896q0 42 30 72t74 30q42 0 72 -30t30 -72q0 -44 -30 -74t-72 -30q-44 0 -74 30 t-30 74zM24 1152q0 42 30 72t74 30q42 0 72 -30t30 -72q0 -44 -30 -74t-72 -30q-44 0 -74 30t-30 74zM24 1408q0 42 30 72t74 30q42 0 72 -30t30 -72q0 -44 -30 -74t-72 -30q-44 0 -74 30t-30 74zM24 1664q0 42 30 72t74 30q42 0 72 -30t30 -72q0 -44 -30 -74t-72 -30 q-44 0 -74 30t-30 74zM280 128q0 42 30 72t74 30q42 0 72 -30t30 -72q0 -44 -30 -74t-72 -30q-44 0 -74 30t-30 74zM536 128q0 42 30 72t74 30q42 0 72 -30t30 -72q0 -44 -30 -74t-72 -30q-44 0 -74 30t-30 74zM792 128q0 42 30 72t74 30q42 0 72 -30t30 -72q0 -44 -30 -74 t-72 -30q-44 0 -74 30t-30 74zM1048 384q0 42 30 72t74 30q42 0 72 -30t30 -72q0 -44 -30 -74t-72 -30q-44 0 -74 30t-30 74zM1048 640q0 42 30 72t74 30q42 0 72 -30t30 -72q0 -44 -30 -74t-72 -30q-44 0 -74 30t-30 74zM1048 896q0 42 30 72t74 30q42 0 72 -30t30 -72 q0 -44 -30 -74t-72 -30q-44 0 -74 30t-30 74zM1048 1152q0 42 30 72t74 30q42 0 72 -30t30 -72q0 -44 -30 -74t-72 -30q-44 0 -74 30t-30 74zM1048 1408q0 42 30 72t74 30q42 0 72 -30t30 -72q0 -44 -30 -74t-72 -30q-44 0 -74 30t-30 74zM1048 1664q0 42 30 72t74 30 q42 0 72 -30t30 -72q0 -44 -30 -74t-72 -30q-44 0 -74 30t-30 74z" />
<glyph unicode="V" d="M24 640q0 42 30 72t74 30q42 0 72 -30t30 -72q0 -44 -30 -74t-72 -30q-44 0 -74 30t-30 74zM24 896q0 42 30 72t74 30q42 0 72 -30t30 -72q0 -44 -30 -74t-72 -30q-44 0 -74 30t-30 74zM24 1152q0 42 30 72t74 30q42 0 72 -30t30 -72q0 -44 -30 -74t-72 -30q-44 0 -74 30 t-30 74zM24 1408q0 42 30 72t74 30q42 0 72 -30t30 -72q0 -44 -30 -74t-72 -30q-44 0 -74 30t-30 74zM24 1664q0 42 30 72t74 30q42 0 72 -30t30 -72q0 -44 -30 -74t-72 -30q-44 0 -74 30t-30 74zM280 384q0 42 30 72t74 30q42 0 72 -30t30 -72q0 -44 -30 -74t-72 -30 q-44 0 -74 30t-30 74zM536 128q0 42 30 72t74 30q42 0 72 -30t30 -72q0 -44 -30 -74t-72 -30q-44 0 -74 30t-30 74zM792 384q0 42 30 72t74 30q42 0 72 -30t30 -72q0 -44 -30 -74t-72 -30q-44 0 -74 30t-30 74zM1048 640q0 42 30 72t74 30q42 0 72 -30t30 -72q0 -44 -30 -74 t-72 -30q-44 0 -74 30t-30 74zM1048 896q0 42 30 72t74 30q42 0 72 -30t30 -72q0 -44 -30 -74t-72 -30q-44 0 -74 30t-30 74zM1048 1152q0 42 30 72t74 30q42 0 72 -30t30 -72q0 -44 -30 -74t-72 -30q-44 0 -74 30t-30 74zM1048 1408q0 42 30 72t74 30q42 0 72 -30t30 -72 q0 -44 -30 -74t-72 -30q-44 0 -74 30t-30 74zM1048 1664q0 42 30 72t74 30q42 0 72 -30t30 -72q0 -44 -30 -74t-72 -30q-44 0 -74 30t-30 74z" />
<glyph unicode="W" d="M24 384q0 42 30 72t74 30q42 0 72 -30t30 -72q0 -44 -30 -74t-72 -30q-44 0 -74 30t-30 74zM24 640q0 42 30 72t74 30q42 0 72 -30t30 -72q0 -44 -30 -74t-72 -30q-44 0 -74 30t-30 74zM24 896q0 42 30 72t74 30q42 0 72 -30t30 -72q0 -44 -30 -74t-72 -30q-44 0 -74 30 t-30 74zM24 1152q0 42 30 72t74 30q42 0 72 -30t30 -72q0 -44 -30 -74t-72 -30q-44 0 -74 30t-30 74zM24 1408q0 42 30 72t74 30q42 0 72 -30t30 -72q0 -44 -30 -74t-72 -30q-44 0 -74 30t-30 74zM24 1664q0 42 30 72t74 30q42 0 72 -30t30 -72q0 -44 -30 -74t-72 -30 q-44 0 -74 30t-30 74zM280 128q0 42 30 72t74 30q42 0 72 -30t30 -72q0 -44 -30 -74t-72 -30q-44 0 -74 30t-30 74zM536 384q0 42 30 72t74 30q42 0 72 -30t30 -72q0 -44 -30 -74t-72 -30q-44 0 -74 30t-30 74zM536 640q0 42 30 72t74 30q42 0 72 -30t30 -72q0 -44 -30 -74 t-72 -30q-44 0 -74 30t-30 74zM536 896q0 42 30 72t74 30q42 0 72 -30t30 -72q0 -44 -30 -74t-72 -30q-44 0 -74 30t-30 74zM536 1152q0 42 30 72t74 30q42 0 72 -30t30 -72q0 -44 -30 -74t-72 -30q-44 0 -74 30t-30 74zM536 1408q0 42 30 72t74 30q42 0 72 -30t30 -72 q0 -44 -30 -74t-72 -30q-44 0 -74 30t-30 74zM792 128q0 42 30 72t74 30q42 0 72 -30t30 -72q0 -44 -30 -74t-72 -30q-44 0 -74 30t-30 74zM1048 384q0 42 30 72t74 30q42 0 72 -30t30 -72q0 -44 -30 -74t-72 -30q-44 0 -74 30t-30 74zM1048 640q0 42 30 72t74 30 q42 0 72 -30t30 -72q0 -44 -30 -74t-72 -30q-44 0 -74 30t-30 74zM1048 896q0 42 30 72t74 30q42 0 72 -30t30 -72q0 -44 -30 -74t-72 -30q-44 0 -74 30t-30 74zM1048 1152q0 42 30 72t74 30q42 0 72 -30t30 -72q0 -44 -30 -74t-72 -30q-44 0 -74 30t-30 74zM1048 1408 q0 42 30 72t74 30q42 0 72 -30t30 -72q0 -44 -30 -74t-72 -30q-44 0 -74 30t-30 74zM1048 1664q0 42 30 72t74 30q42 0 72 -30t30 -72q0 -44 -30 -74t-72 -30q-44 0 -74 30t-30 74z" />
<glyph unicode="X" d="M24 128q0 42 30 72t74 30q42 0 72 -30t30 -72q0 -44 -30 -74t-72 -30q-44 0 -74 30t-30 74zM24 384q0 42 30 72t74 30q42 0 72 -30t30 -72q0 -44 -30 -74t-72 -30q-44 0 -74 30t-30 74zM24 1408q0 42 30 72t74 30q42 0 72 -30t30 -72q0 -44 -30 -74t-72 -30q-44 0 -74 30 t-30 74zM24 1664q0 42 30 72t74 30q42 0 72 -30t30 -72q0 -44 -30 -74t-72 -30q-44 0 -74 30t-30 74zM280 640q0 42 30 72t74 30q42 0 72 -30t30 -72q0 -44 -30 -74t-72 -30q-44 0 -74 30t-30 74zM280 1152q0 42 30 72t74 30q42 0 72 -30t30 -72q0 -44 -30 -74t-72 -30 q-44 0 -74 30t-30 74zM536 896q0 42 30 72t74 30q42 0 72 -30t30 -72q0 -44 -30 -74t-72 -30q-44 0 -74 30t-30 74zM792 640q0 42 30 72t74 30q42 0 72 -30t30 -72q0 -44 -30 -74t-72 -30q-44 0 -74 30t-30 74zM792 1152q0 42 30 72t74 30q42 0 72 -30t30 -72q0 -44 -30 -74 t-72 -30q-44 0 -74 30t-30 74zM1048 128q0 42 30 72t74 30q42 0 72 -30t30 -72q0 -44 -30 -74t-72 -30q-44 0 -74 30t-30 74zM1048 384q0 42 30 72t74 30q42 0 72 -30t30 -72q0 -44 -30 -74t-72 -30q-44 0 -74 30t-30 74zM1048 1408q0 42 30 72t74 30q42 0 72 -30t30 -72 q0 -44 -30 -74t-72 -30q-44 0 -74 30t-30 74zM1048 1664q0 42 30 72t74 30q42 0 72 -30t30 -72q0 -44 -30 -74t-72 -30q-44 0 -74 30t-30 74z" />
<glyph unicode="Y" d="M24 1408q0 42 30 72t74 30q42 0 72 -30t30 -72q0 -44 -30 -74t-72 -30q-44 0 -74 30t-30 74zM24 1664q0 42 30 72t74 30q42 0 72 -30t30 -72q0 -44 -30 -74t-72 -30q-44 0 -74 30t-30 74zM280 1152q0 42 30 72t74 30q42 0 72 -30t30 -72q0 -44 -30 -74t-72 -30 q-44 0 -74 30t-30 74zM536 128q0 42 30 72t74 30q42 0 72 -30t30 -72q0 -44 -30 -74t-72 -30q-44 0 -74 30t-30 74zM536 384q0 42 30 72t74 30q42 0 72 -30t30 -72q0 -44 -30 -74t-72 -30q-44 0 -74 30t-30 74zM536 640q0 42 30 72t74 30q42 0 72 -30t30 -72q0 -44 -30 -74 t-72 -30q-44 0 -74 30t-30 74zM536 896q0 42 30 72t74 30q42 0 72 -30t30 -72q0 -44 -30 -74t-72 -30q-44 0 -74 30t-30 74zM792 1152q0 42 30 72t74 30q42 0 72 -30t30 -72q0 -44 -30 -74t-72 -30q-44 0 -74 30t-30 74zM1048 1408q0 42 30 72t74 30q42 0 72 -30t30 -72 q0 -44 -30 -74t-72 -30q-44 0 -74 30t-30 74zM1048 1664q0 42 30 72t74 30q42 0 72 -30t30 -72q0 -44 -30 -74t-72 -30q-44 0 -74 30t-30 74z" />
<glyph unicode="Z" d="M24 128q0 42 30 72t74 30q42 0 72 -30t30 -72q0 -44 -30 -74t-72 -30q-44 0 -74 30t-30 74zM24 384q0 42 30 72t74 30q42 0 72 -30t30 -72q0 -44 -30 -74t-72 -30q-44 0 -74 30t-30 74zM24 1664q0 42 30 72t74 30q42 0 72 -30t30 -72q0 -44 -30 -74t-72 -30q-44 0 -74 30 t-30 74zM280 128q0 42 30 72t74 30q42 0 72 -30t30 -72q0 -44 -30 -74t-72 -30q-44 0 -74 30t-30 74zM280 640q0 42 30 72t74 30q42 0 72 -30t30 -72q0 -44 -30 -74t-72 -30q-44 0 -74 30t-30 74zM280 1664q0 42 30 72t74 30q42 0 72 -30t30 -72q0 -44 -30 -74t-72 -30 q-44 0 -74 30t-30 74zM536 128q0 42 30 72t74 30q42 0 72 -30t30 -72q0 -44 -30 -74t-72 -30q-44 0 -74 30t-30 74zM536 896q0 42 30 72t74 30q42 0 72 -30t30 -72q0 -44 -30 -74t-72 -30q-44 0 -74 30t-30 74zM536 1664q0 42 30 72t74 30q42 0 72 -30t30 -72q0 -44 -30 -74 t-72 -30q-44 0 -74 30t-30 74zM792 128q0 42 30 72t74 30q42 0 72 -30t30 -72q0 -44 -30 -74t-72 -30q-44 0 -74 30t-30 74zM792 1152q0 42 30 72t74 30q42 0 72 -30t30 -72q0 -44 -30 -74t-72 -30q-44 0 -74 30t-30 74zM792 1664q0 42 30 72t74 30q42 0 72 -30t30 -72 q0 -44 -30 -74t-72 -30q-44 0 -74 30t-30 74zM1048 128q0 42 30 72t74 30q42 0 72 -30t30 -72q0 -44 -30 -74t-72 -30q-44 0 -74 30t-30 74zM1048 1408q0 42 30 72t74 30q42 0 72 -30t30 -72q0 -44 -30 -74t-72 -30q-44 0 -74 30t-30 74zM1048 1664q0 42 30 72t74 30 q42 0 72 -30t30 -72q0 -44 -30 -74t-72 -30q-44 0 -74 30t-30 74z" />
<glyph unicode="[" horiz-adv-x="768" d="M24 384q0 42 30 72t74 30q42 0 72 -30t30 -72q0 -44 -30 -74t-72 -30q-44 0 -74 30t-30 74zM24 640q0 42 30 72t74 30q42 0 72 -30t30 -72q0 -44 -30 -74t-72 -30q-44 0 -74 30t-30 74zM24 896q0 42 30 72t74 30q42 0 72 -30t30 -72q0 -44 -30 -74t-72 -30q-44 0 -74 30 t-30 74zM24 1152q0 42 30 72t74 30q42 0 72 -30t30 -72q0 -44 -30 -74t-72 -30q-44 0 -74 30t-30 74zM280 128q0 42 30 72t74 30q42 0 72 -30t30 -72q0 -44 -30 -74t-72 -30q-44 0 -74 30t-30 74zM280 1408q0 42 30 72t74 30q42 0 72 -30t30 -72q0 -44 -30 -74t-72 -30 q-44 0 -74 30t-30 74z" />
<glyph unicode="\" horiz-adv-x="1790" d="M24 1408q0 42 30 72t74 30q42 0 72 -30t30 -72q0 -44 -30 -74t-72 -30q-44 0 -74 30t-30 74zM280 1152q0 42 30 72t74 30q42 0 72 -30t30 -72q0 -44 -30 -74t-72 -30q-44 0 -74 30t-30 74zM536 896q0 42 30 72t74 30q42 0 72 -30t30 -72q0 -44 -30 -74t-72 -30 q-44 0 -74 30t-30 74zM792 640q0 42 30 72t74 30q42 0 72 -30t30 -72q0 -44 -30 -74t-72 -30q-44 0 -74 30t-30 74zM1048 384q0 42 30 72t74 30q42 0 72 -30t30 -72q0 -44 -30 -74t-72 -30q-44 0 -74 30t-30 74zM1304 128q0 42 30 72t74 30q42 0 72 -30t30 -72 q0 -44 -30 -74t-72 -30q-44 0 -74 30t-30 74z" />
<glyph unicode="]" horiz-adv-x="768" d="M24 128q0 42 30 72t74 30q42 0 72 -30t30 -72q0 -44 -30 -74t-72 -30q-44 0 -74 30t-30 74zM24 1408q0 42 30 72t74 30q42 0 72 -30t30 -72q0 -44 -30 -74t-72 -30q-44 0 -74 30t-30 74zM280 384q0 42 30 72t74 30q42 0 72 -30t30 -72q0 -44 -30 -74t-72 -30 q-44 0 -74 30t-30 74zM280 640q0 42 30 72t74 30q42 0 72 -30t30 -72q0 -44 -30 -74t-72 -30q-44 0 -74 30t-30 74zM280 896q0 42 30 72t74 30q42 0 72 -30t30 -72q0 -44 -30 -74t-72 -30q-44 0 -74 30t-30 74zM280 1152q0 42 30 72t74 30q42 0 72 -30t30 -72q0 -44 -30 -74 t-72 -30q-44 0 -74 30t-30 74z" />
<glyph unicode="^" d="M24 640q0 42 30 72t74 30q42 0 72 -30t30 -72q0 -44 -30 -74t-72 -30q-44 0 -74 30t-30 74zM280 896q0 42 30 72t74 30q42 0 72 -30t30 -72q0 -44 -30 -74t-72 -30q-44 0 -74 30t-30 74zM536 1152q0 42 30 72t74 30q42 0 72 -30t30 -72q0 -44 -30 -74t-72 -30 q-44 0 -74 30t-30 74zM792 896q0 42 30 72t74 30q42 0 72 -30t30 -72q0 -44 -30 -74t-72 -30q-44 0 -74 30t-30 74zM1048 640q0 42 30 72t74 30q42 0 72 -30t30 -72q0 -44 -30 -74t-72 -30q-44 0 -74 30t-30 74z" />
<glyph unicode="_" horiz-adv-x="1536" d="M1126 102v50h50v-50h-50z" />
<glyph unicode="`" horiz-adv-x="1278" d="M536 1152q0 42 30 72t74 30q42 0 72 -30t30 -72q0 -44 -30 -74t-72 -30q-44 0 -74 30t-30 74zM792 896q0 42 30 72t74 30q42 0 72 -30t30 -72q0 -44 -30 -74t-72 -30q-44 0 -74 30t-30 74z" />
<glyph unicode="a" d="M24 384q0 42 30 72t74 30q42 0 72 -30t30 -72q0 -44 -30 -74t-72 -30q-44 0 -74 30t-30 74zM24 640q0 42 30 72t74 30q42 0 72 -30t30 -72q0 -44 -30 -74t-72 -30q-44 0 -74 30t-30 74zM24 1408q0 42 30 72t74 30q42 0 72 -30t30 -72q0 -44 -30 -74t-72 -30q-44 0 -74 30 t-30 74zM280 128q0 42 30 72t74 30q42 0 72 -30t30 -72q0 -44 -30 -74t-72 -30q-44 0 -74 30t-30 74zM280 896q0 42 30 72t74 30q42 0 72 -30t30 -72q0 -44 -30 -74t-72 -30q-44 0 -74 30t-30 74zM280 1664q0 42 30 72t74 30q42 0 72 -30t30 -72q0 -44 -30 -74t-72 -30 q-44 0 -74 30t-30 74zM536 128q0 42 30 72t74 30q42 0 72 -30t30 -72q0 -44 -30 -74t-72 -30q-44 0 -74 30t-30 74zM536 896q0 42 30 72t74 30q42 0 72 -30t30 -72q0 -44 -30 -74t-72 -30q-44 0 -74 30t-30 74zM536 1664q0 42 30 72t74 30q42 0 72 -30t30 -72q0 -44 -30 -74 t-72 -30q-44 0 -74 30t-30 74zM792 384q0 42 30 72t74 30q42 0 72 -30t30 -72q0 -44 -30 -74t-72 -30q-44 0 -74 30t-30 74zM792 640q0 42 30 72t74 30q42 0 72 -30t30 -72q0 -44 -30 -74t-72 -30q-44 0 -74 30t-30 74zM792 896q0 42 30 72t74 30q42 0 72 -30t30 -72 q0 -44 -30 -74t-72 -30q-44 0 -74 30t-30 74zM792 1152q0 42 30 72t74 30q42 0 72 -30t30 -72q0 -44 -30 -74t-72 -30q-44 0 -74 30t-30 74zM792 1408q0 42 30 72t74 30q42 0 72 -30t30 -72q0 -44 -30 -74t-72 -30q-44 0 -74 30t-30 74zM1048 128q0 42 30 72t74 30 q42 0 72 -30t30 -72q0 -44 -30 -74t-72 -30q-44 0 -74 30t-30 74z" />
<glyph unicode="b" d="M24 384q0 42 30 72t74 30q42 0 72 -30t30 -72q0 -44 -30 -74t-72 -30q-44 0 -74 30t-30 74zM24 640q0 42 30 72t74 30q42 0 72 -30t30 -72q0 -44 -30 -74t-72 -30q-44 0 -74 30t-30 74zM24 896q0 42 30 72t74 30q42 0 72 -30t30 -72q0 -44 -30 -74t-72 -30q-44 0 -74 30 t-30 74zM24 1152q0 42 30 72t74 30q42 0 72 -30t30 -72q0 -44 -30 -74t-72 -30q-44 0 -74 30t-30 74zM24 1408q0 42 30 72t74 30q42 0 72 -30t30 -72q0 -44 -30 -74t-72 -30q-44 0 -74 30t-30 74zM24 1664q0 42 30 72t74 30q42 0 72 -30t30 -72q0 -44 -30 -74t-72 -30 q-44 0 -74 30t-30 74zM280 128q0 42 30 72t74 30q42 0 72 -30t30 -72q0 -44 -30 -74t-72 -30q-44 0 -74 30t-30 74zM280 896q0 42 30 72t74 30q42 0 72 -30t30 -72q0 -44 -30 -74t-72 -30q-44 0 -74 30t-30 74zM536 128q0 42 30 72t74 30q42 0 72 -30t30 -72q0 -44 -30 -74 t-72 -30q-44 0 -74 30t-30 74zM536 896q0 42 30 72t74 30q42 0 72 -30t30 -72q0 -44 -30 -74t-72 -30q-44 0 -74 30t-30 74zM792 128q0 42 30 72t74 30q42 0 72 -30t30 -72q0 -44 -30 -74t-72 -30q-44 0 -74 30t-30 74zM792 896q0 42 30 72t74 30q42 0 72 -30t30 -72 q0 -44 -30 -74t-72 -30q-44 0 -74 30t-30 74zM1048 384q0 42 30 72t74 30q42 0 72 -30t30 -72q0 -44 -30 -74t-72 -30q-44 0 -74 30t-30 74zM1048 640q0 42 30 72t74 30q42 0 72 -30t30 -72q0 -44 -30 -74t-72 -30q-44 0 -74 30t-30 74z" />
<glyph unicode="c" horiz-adv-x="1278" d="M24 384q0 42 30 72t74 30q42 0 72 -30t30 -72q0 -44 -30 -74t-72 -30q-44 0 -74 30t-30 74zM24 640q0 42 30 72t74 30q42 0 72 -30t30 -72q0 -44 -30 -74t-72 -30q-44 0 -74 30t-30 74zM24 896q0 42 30 72t74 30q42 0 72 -30t30 -72q0 -44 -30 -74t-72 -30q-44 0 -74 30 t-30 74zM280 128q0 42 30 72t74 30q42 0 72 -30t30 -72q0 -44 -30 -74t-72 -30q-44 0 -74 30t-30 74zM280 1152q0 42 30 72t74 30q42 0 72 -30t30 -72q0 -44 -30 -74t-72 -30q-44 0 -74 30t-30 74zM536 128q0 42 30 72t74 30q42 0 72 -30t30 -72q0 -44 -30 -74t-72 -30 q-44 0 -74 30t-30 74zM536 1152q0 42 30 72t74 30q42 0 72 -30t30 -72q0 -44 -30 -74t-72 -30q-44 0 -74 30t-30 74zM792 384q0 42 30 72t74 30q42 0 72 -30t30 -72q0 -44 -30 -74t-72 -30q-44 0 -74 30t-30 74zM792 896q0 42 30 72t74 30q42 0 72 -30t30 -72q0 -44 -30 -74 t-72 -30q-44 0 -74 30t-30 74z" />
<glyph unicode="d" d="M24 384q0 42 30 72t74 30q42 0 72 -30t30 -72q0 -44 -30 -74t-72 -30q-44 0 -74 30t-30 74zM24 640q0 42 30 72t74 30q42 0 72 -30t30 -72q0 -44 -30 -74t-72 -30q-44 0 -74 30t-30 74zM280 128q0 42 30 72t74 30q42 0 72 -30t30 -72q0 -44 -30 -74t-72 -30q-44 0 -74 30 t-30 74zM280 896q0 42 30 72t74 30q42 0 72 -30t30 -72q0 -44 -30 -74t-72 -30q-44 0 -74 30t-30 74zM536 128q0 42 30 72t74 30q42 0 72 -30t30 -72q0 -44 -30 -74t-72 -30q-44 0 -74 30t-30 74zM536 896q0 42 30 72t74 30q42 0 72 -30t30 -72q0 -44 -30 -74t-72 -30 q-44 0 -74 30t-30 74zM792 128q0 42 30 72t74 30q42 0 72 -30t30 -72q0 -44 -30 -74t-72 -30q-44 0 -74 30t-30 74zM792 896q0 42 30 72t74 30q42 0 72 -30t30 -72q0 -44 -30 -74t-72 -30q-44 0 -74 30t-30 74zM1048 384q0 42 30 72t74 30q42 0 72 -30t30 -72q0 -44 -30 -74 t-72 -30q-44 0 -74 30t-30 74zM1048 640q0 42 30 72t74 30q42 0 72 -30t30 -72q0 -44 -30 -74t-72 -30q-44 0 -74 30t-30 74zM1048 896q0 42 30 72t74 30q42 0 72 -30t30 -72q0 -44 -30 -74t-72 -30q-44 0 -74 30t-30 74zM1048 1152q0 42 30 72t74 30q42 0 72 -30t30 -72 q0 -44 -30 -74t-72 -30q-44 0 -74 30t-30 74zM1048 1408q0 42 30 72t74 30q42 0 72 -30t30 -72q0 -44 -30 -74t-72 -30q-44 0 -74 30t-30 74zM1048 1664q0 42 30 72t74 30q42 0 72 -30t30 -72q0 -44 -30 -74t-72 -30q-44 0 -74 30t-30 74z" />
<glyph unicode="e" d="M24 384q0 42 30 72t74 30q42 0 72 -30t30 -72q0 -44 -30 -74t-72 -30q-44 0 -74 30t-30 74zM24 640q0 42 30 72t74 30q42 0 72 -30t30 -72q0 -44 -30 -74t-72 -30q-44 0 -74 30t-30 74zM24 896q0 42 30 72t74 30q42 0 72 -30t30 -72q0 -44 -30 -74t-72 -30q-44 0 -74 30 t-30 74zM24 1152q0 42 30 72t74 30q42 0 72 -30t30 -72q0 -44 -30 -74t-72 -30q-44 0 -74 30t-30 74zM24 1408q0 42 30 72t74 30q42 0 72 -30t30 -72q0 -44 -30 -74t-72 -30q-44 0 -74 30t-30 74zM280 128q0 42 30 72t74 30q42 0 72 -30t30 -72q0 -44 -30 -74t-72 -30 q-44 0 -74 30t-30 74zM280 896q0 42 30 72t74 30q42 0 72 -30t30 -72q0 -44 -30 -74t-72 -30q-44 0 -74 30t-30 74zM280 1664q0 42 30 72t74 30q42 0 72 -30t30 -72q0 -44 -30 -74t-72 -30q-44 0 -74 30t-30 74zM536 128q0 42 30 72t74 30q42 0 72 -30t30 -72q0 -44 -30 -74 t-72 -30q-44 0 -74 30t-30 74zM536 896q0 42 30 72t74 30q42 0 72 -30t30 -72q0 -44 -30 -74t-72 -30q-44 0 -74 30t-30 74zM536 1664q0 42 30 72t74 30q42 0 72 -30t30 -72q0 -44 -30 -74t-72 -30q-44 0 -74 30t-30 74zM792 128q0 42 30 72t74 30q42 0 72 -30t30 -72 q0 -44 -30 -74t-72 -30q-44 0 -74 30t-30 74zM792 896q0 42 30 72t74 30q42 0 72 -30t30 -72q0 -44 -30 -74t-72 -30q-44 0 -74 30t-30 74zM792 1664q0 42 30 72t74 30q42 0 72 -30t30 -72q0 -44 -30 -74t-72 -30q-44 0 -74 30t-30 74zM1048 384q0 42 30 72t74 30 q42 0 72 -30t30 -72q0 -44 -30 -74t-72 -30q-44 0 -74 30t-30 74zM1048 1152q0 42 30 72t74 30q42 0 72 -30t30 -72q0 -44 -30 -74t-72 -30q-44 0 -74 30t-30 74zM1048 1408q0 42 30 72t74 30q42 0 72 -30t30 -72q0 -44 -30 -74t-72 -30q-44 0 -74 30t-30 74z" />
<glyph unicode="f" horiz-adv-x="1022" d="M24 128q0 42 30 72t74 30q42 0 72 -30t30 -72q0 -44 -30 -74t-72 -30q-44 0 -74 30t-30 74zM24 384q0 42 30 72t74 30q42 0 72 -30t30 -72q0 -44 -30 -74t-72 -30q-44 0 -74 30t-30 74zM24 640q0 42 30 72t74 30q42 0 72 -30t30 -72q0 -44 -30 -74t-72 -30q-44 0 -74 30 t-30 74zM24 896q0 42 30 72t74 30q42 0 72 -30t30 -72q0 -44 -30 -74t-72 -30q-44 0 -74 30t-30 74zM24 1152q0 42 30 72t74 30q42 0 72 -30t30 -72q0 -44 -30 -74t-72 -30q-44 0 -74 30t-30 74zM24 1408q0 42 30 72t74 30q42 0 72 -30t30 -72q0 -44 -30 -74t-72 -30 q-44 0 -74 30t-30 74zM280 896q0 42 30 72t74 30q42 0 72 -30t30 -72q0 -44 -30 -74t-72 -30q-44 0 -74 30t-30 74zM280 1664q0 42 30 72t74 30q42 0 72 -30t30 -72q0 -44 -30 -74t-72 -30q-44 0 -74 30t-30 74zM536 1408q0 42 30 72t74 30q42 0 72 -30t30 -72 q0 -44 -30 -74t-72 -30q-44 0 -74 30t-30 74z" />
<glyph unicode="g" d="M24 384q0 42 30 72t74 30q42 0 72 -30t30 -72q0 -44 -30 -74t-72 -30q-44 0 -74 30t-30 74zM24 1152q0 42 30 72t74 30q42 0 72 -30t30 -72q0 -44 -30 -74t-72 -30q-44 0 -74 30t-30 74zM24 1408q0 42 30 72t74 30q42 0 72 -30t30 -72q0 -44 -30 -74t-72 -30 q-44 0 -74 30t-30 74zM280 128q0 42 30 72t74 30q42 0 72 -30t30 -72q0 -44 -30 -74t-72 -30q-44 0 -74 30t-30 74zM280 896q0 42 30 72t74 30q42 0 72 -30t30 -72q0 -44 -30 -74t-72 -30q-44 0 -74 30t-30 74zM280 1664q0 42 30 72t74 30q42 0 72 -30t30 -72q0 -44 -30 -74 t-72 -30q-44 0 -74 30t-30 74zM536 128q0 42 30 72t74 30q42 0 72 -30t30 -72q0 -44 -30 -74t-72 -30q-44 0 -74 30t-30 74zM536 896q0 42 30 72t74 30q42 0 72 -30t30 -72q0 -44 -30 -74t-72 -30q-44 0 -74 30t-30 74zM536 1664q0 42 30 72t74 30q42 0 72 -30t30 -72 q0 -44 -30 -74t-72 -30q-44 0 -74 30t-30 74zM792 128q0 42 30 72t74 30q42 0 72 -30t30 -72q0 -44 -30 -74t-72 -30q-44 0 -74 30t-30 74zM792 896q0 42 30 72t74 30q42 0 72 -30t30 -72q0 -44 -30 -74t-72 -30q-44 0 -74 30t-30 74zM792 1664q0 42 30 72t74 30 q42 0 72 -30t30 -72q0 -44 -30 -74t-72 -30q-44 0 -74 30t-30 74zM1048 384q0 42 30 72t74 30q42 0 72 -30t30 -72q0 -44 -30 -74t-72 -30q-44 0 -74 30t-30 74zM1048 640q0 42 30 72t74 30q42 0 72 -30t30 -72q0 -44 -30 -74t-72 -30q-44 0 -74 30t-30 74zM1048 896 q0 42 30 72t74 30q42 0 72 -30t30 -72q0 -44 -30 -74t-72 -30q-44 0 -74 30t-30 74zM1048 1152q0 42 30 72t74 30q42 0 72 -30t30 -72q0 -44 -30 -74t-72 -30q-44 0 -74 30t-30 74zM1048 1408q0 42 30 72t74 30q42 0 72 -30t30 -72q0 -44 -30 -74t-72 -30q-44 0 -74 30 t-30 74z" />
<glyph unicode="h" horiz-adv-x="1278" d="M24 128q0 42 30 72t74 30q42 0 72 -30t30 -72q0 -44 -30 -74t-72 -30q-44 0 -74 30t-30 74zM24 384q0 42 30 72t74 30q42 0 72 -30t30 -72q0 -44 -30 -74t-72 -30q-44 0 -74 30t-30 74zM24 640q0 42 30 72t74 30q42 0 72 -30t30 -72q0 -44 -30 -74t-72 -30q-44 0 -74 30 t-30 74zM24 896q0 42 30 72t74 30q42 0 72 -30t30 -72q0 -44 -30 -74t-72 -30q-44 0 -74 30t-30 74zM24 1152q0 42 30 72t74 30q42 0 72 -30t30 -72q0 -44 -30 -74t-72 -30q-44 0 -74 30t-30 74zM24 1408q0 42 30 72t74 30q42 0 72 -30t30 -72q0 -44 -30 -74t-72 -30 q-44 0 -74 30t-30 74zM24 1664q0 42 30 72t74 30q42 0 72 -30t30 -72q0 -44 -30 -74t-72 -30q-44 0 -74 30t-30 74zM280 896q0 42 30 72t74 30q42 0 72 -30t30 -72q0 -44 -30 -74t-72 -30q-44 0 -74 30t-30 74zM536 1152q0 42 30 72t74 30q42 0 72 -30t30 -72q0 -44 -30 -74 t-72 -30q-44 0 -74 30t-30 74zM792 128q0 42 30 72t74 30q42 0 72 -30t30 -72q0 -44 -30 -74t-72 -30q-44 0 -74 30t-30 74zM792 384q0 42 30 72t74 30q42 0 72 -30t30 -72q0 -44 -30 -74t-72 -30q-44 0 -74 30t-30 74zM792 640q0 42 30 72t74 30q42 0 72 -30t30 -72 q0 -44 -30 -74t-72 -30q-44 0 -74 30t-30 74zM792 896q0 42 30 72t74 30q42 0 72 -30t30 -72q0 -44 -30 -74t-72 -30q-44 0 -74 30t-30 74z" />
<glyph unicode="i" horiz-adv-x="1022" d="M536 128q0 42 30 72t74 30q42 0 72 -30t30 -72q0 -44 -30 -74t-72 -30q-44 0 -74 30t-30 74zM536 384q0 42 30 72t74 30q42 0 72 -30t30 -72q0 -44 -30 -74t-72 -30q-44 0 -74 30t-30 74zM536 640q0 42 30 72t74 30q42 0 72 -30t30 -72q0 -44 -30 -74t-72 -30 q-44 0 -74 30t-30 74zM536 896q0 42 30 72t74 30q42 0 72 -30t30 -72q0 -44 -30 -74t-72 -30q-44 0 -74 30t-30 74zM536 1152q0 42 30 72t74 30q42 0 72 -30t30 -72q0 -44 -30 -74t-72 -30q-44 0 -74 30t-30 74zM536 1664q0 42 30 72t74 30q42 0 72 -30t30 -72 q0 -44 -30 -74t-72 -30q-44 0 -74 30t-30 74z" />
<glyph unicode="j" horiz-adv-x="1278" d="M280 384q0 42 30 72t74 30q42 0 72 -30t30 -72q0 -44 -30 -74t-72 -30q-44 0 -74 30t-30 74zM536 128q0 42 30 72t74 30q42 0 72 -30t30 -72q0 -44 -30 -74t-72 -30q-44 0 -74 30t-30 74zM792 384q0 42 30 72t74 30q42 0 72 -30t30 -72q0 -44 -30 -74t-72 -30 q-44 0 -74 30t-30 74zM792 640q0 42 30 72t74 30q42 0 72 -30t30 -72q0 -44 -30 -74t-72 -30q-44 0 -74 30t-30 74zM792 896q0 42 30 72t74 30q42 0 72 -30t30 -72q0 -44 -30 -74t-72 -30q-44 0 -74 30t-30 74zM792 1152q0 42 30 72t74 30q42 0 72 -30t30 -72q0 -44 -30 -74 t-72 -30q-44 0 -74 30t-30 74zM792 1664q0 42 30 72t74 30q42 0 72 -30t30 -72q0 -44 -30 -74t-72 -30q-44 0 -74 30t-30 74z" />
<glyph unicode="k" horiz-adv-x="1278" d="M24 128q0 42 30 72t74 30q42 0 72 -30t30 -72q0 -44 -30 -74t-72 -30q-44 0 -74 30t-30 74zM24 384q0 42 30 72t74 30q42 0 72 -30t30 -72q0 -44 -30 -74t-72 -30q-44 0 -74 30t-30 74zM24 640q0 42 30 72t74 30q42 0 72 -30t30 -72q0 -44 -30 -74t-72 -30q-44 0 -74 30 t-30 74zM24 896q0 42 30 72t74 30q42 0 72 -30t30 -72q0 -44 -30 -74t-72 -30q-44 0 -74 30t-30 74zM24 1152q0 42 30 72t74 30q42 0 72 -30t30 -72q0 -44 -30 -74t-72 -30q-44 0 -74 30t-30 74zM24 1408q0 42 30 72t74 30q42 0 72 -30t30 -72q0 -44 -30 -74t-72 -30 q-44 0 -74 30t-30 74zM24 1664q0 42 30 72t74 30q42 0 72 -30t30 -72q0 -44 -30 -74t-72 -30q-44 0 -74 30t-30 74zM280 640q0 42 30 72t74 30q42 0 72 -30t30 -72q0 -44 -30 -74t-72 -30q-44 0 -74 30t-30 74zM536 384q0 42 30 72t74 30q42 0 72 -30t30 -72q0 -44 -30 -74 t-72 -30q-44 0 -74 30t-30 74zM536 896q0 42 30 72t74 30q42 0 72 -30t30 -72q0 -44 -30 -74t-72 -30q-44 0 -74 30t-30 74zM792 128q0 42 30 72t74 30q42 0 72 -30t30 -72q0 -44 -30 -74t-72 -30q-44 0 -74 30t-30 74zM792 1152q0 42 30 72t74 30q42 0 72 -30t30 -72 q0 -44 -30 -74t-72 -30q-44 0 -74 30t-30 74z" />
<glyph unicode="l" horiz-adv-x="512" d="M24 128q0 42 30 72t74 30q42 0 72 -30t30 -72q0 -44 -30 -74t-72 -30q-44 0 -74 30t-30 74zM24 384q0 42 30 72t74 30q42 0 72 -30t30 -72q0 -44 -30 -74t-72 -30q-44 0 -74 30t-30 74zM24 640q0 42 30 72t74 30q42 0 72 -30t30 -72q0 -44 -30 -74t-72 -30q-44 0 -74 30 t-30 74zM24 896q0 42 30 72t74 30q42 0 72 -30t30 -72q0 -44 -30 -74t-72 -30q-44 0 -74 30t-30 74zM24 1152q0 42 30 72t74 30q42 0 72 -30t30 -72q0 -44 -30 -74t-72 -30q-44 0 -74 30t-30 74zM24 1408q0 42 30 72t74 30q42 0 72 -30t30 -72q0 -44 -30 -74t-72 -30 q-44 0 -74 30t-30 74zM24 1664q0 42 30 72t74 30q42 0 72 -30t30 -72q0 -44 -30 -74t-72 -30q-44 0 -74 30t-30 74z" />
<glyph unicode="m" d="M24 128q0 42 30 72t74 30q42 0 72 -30t30 -72q0 -44 -30 -74t-72 -30q-44 0 -74 30t-30 74zM24 384q0 42 30 72t74 30q42 0 72 -30t30 -72q0 -44 -30 -74t-72 -30q-44 0 -74 30t-30 74zM24 640q0 42 30 72t74 30q42 0 72 -30t30 -72q0 -44 -30 -74t-72 -30q-44 0 -74 30 t-30 74zM24 896q0 42 30 72t74 30q42 0 72 -30t30 -72q0 -44 -30 -74t-72 -30q-44 0 -74 30t-30 74zM24 1152q0 42 30 72t74 30q42 0 72 -30t30 -72q0 -44 -30 -74t-72 -30q-44 0 -74 30t-30 74zM280 896q0 42 30 72t74 30q42 0 72 -30t30 -72q0 -44 -30 -74t-72 -30 q-44 0 -74 30t-30 74zM536 128q0 42 30 72t74 30q42 0 72 -30t30 -72q0 -44 -30 -74t-72 -30q-44 0 -74 30t-30 74zM536 384q0 42 30 72t74 30q42 0 72 -30t30 -72q0 -44 -30 -74t-72 -30q-44 0 -74 30t-30 74zM536 640q0 42 30 72t74 30q42 0 72 -30t30 -72q0 -44 -30 -74 t-72 -30q-44 0 -74 30t-30 74zM792 896q0 42 30 72t74 30q42 0 72 -30t30 -72q0 -44 -30 -74t-72 -30q-44 0 -74 30t-30 74zM1048 128q0 42 30 72t74 30q42 0 72 -30t30 -72q0 -44 -30 -74t-72 -30q-44 0 -74 30t-30 74zM1048 384q0 42 30 72t74 30q42 0 72 -30t30 -72 q0 -44 -30 -74t-72 -30q-44 0 -74 30t-30 74zM1048 640q0 42 30 72t74 30q42 0 72 -30t30 -72q0 -44 -30 -74t-72 -30q-44 0 -74 30t-30 74z" />
<glyph unicode="n" horiz-adv-x="1022" d="M24 128q0 42 30 72t74 30q42 0 72 -30t30 -72q0 -44 -30 -74t-72 -30q-44 0 -74 30t-30 74zM24 384q0 42 30 72t74 30q42 0 72 -30t30 -72q0 -44 -30 -74t-72 -30q-44 0 -74 30t-30 74zM24 640q0 42 30 72t74 30q42 0 72 -30t30 -72q0 -44 -30 -74t-72 -30q-44 0 -74 30 t-30 74zM24 896q0 42 30 72t74 30q42 0 72 -30t30 -72q0 -44 -30 -74t-72 -30q-44 0 -74 30t-30 74zM24 1152q0 42 30 72t74 30q42 0 72 -30t30 -72q0 -44 -30 -74t-72 -30q-44 0 -74 30t-30 74zM280 896q0 42 30 72t74 30q42 0 72 -30t30 -72q0 -44 -30 -74t-72 -30 q-44 0 -74 30t-30 74zM536 128q0 42 30 72t74 30q42 0 72 -30t30 -72q0 -44 -30 -74t-72 -30q-44 0 -74 30t-30 74zM536 384q0 42 30 72t74 30q42 0 72 -30t30 -72q0 -44 -30 -74t-72 -30q-44 0 -74 30t-30 74zM536 640q0 42 30 72t74 30q42 0 72 -30t30 -72q0 -44 -30 -74 t-72 -30q-44 0 -74 30t-30 74z" />
<glyph unicode="o" horiz-adv-x="1278" d="M24 384q0 42 30 72t74 30q42 0 72 -30t30 -72q0 -44 -30 -74t-72 -30q-44 0 -74 30t-30 74zM24 640q0 42 30 72t74 30q42 0 72 -30t30 -72q0 -44 -30 -74t-72 -30q-44 0 -74 30t-30 74zM24 896q0 42 30 72t74 30q42 0 72 -30t30 -72q0 -44 -30 -74t-72 -30q-44 0 -74 30 t-30 74zM280 128q0 42 30 72t74 30q42 0 72 -30t30 -72q0 -44 -30 -74t-72 -30q-44 0 -74 30t-30 74zM280 1152q0 42 30 72t74 30q42 0 72 -30t30 -72q0 -44 -30 -74t-72 -30q-44 0 -74 30t-30 74zM536 128q0 42 30 72t74 30q42 0 72 -30t30 -72q0 -44 -30 -74t-72 -30 q-44 0 -74 30t-30 74zM536 1152q0 42 30 72t74 30q42 0 72 -30t30 -72q0 -44 -30 -74t-72 -30q-44 0 -74 30t-30 74zM792 384q0 42 30 72t74 30q42 0 72 -30t30 -72q0 -44 -30 -74t-72 -30q-44 0 -74 30t-30 74zM792 640q0 42 30 72t74 30q42 0 72 -30t30 -72q0 -44 -30 -74 t-72 -30q-44 0 -74 30t-30 74zM792 896q0 42 30 72t74 30q42 0 72 -30t30 -72q0 -44 -30 -74t-72 -30q-44 0 -74 30t-30 74z" />
<glyph unicode="p" horiz-adv-x="1278" d="M24 128q0 42 30 72t74 30q42 0 72 -30t30 -72q0 -44 -30 -74t-72 -30q-44 0 -74 30t-30 74zM24 384q0 42 30 72t74 30q42 0 72 -30t30 -72q0 -44 -30 -74t-72 -30q-44 0 -74 30t-30 74zM24 640q0 42 30 72t74 30q42 0 72 -30t30 -72q0 -44 -30 -74t-72 -30q-44 0 -74 30 t-30 74zM24 896q0 42 30 72t74 30q42 0 72 -30t30 -72q0 -44 -30 -74t-72 -30q-44 0 -74 30t-30 74zM24 1152q0 42 30 72t74 30q42 0 72 -30t30 -72q0 -44 -30 -74t-72 -30q-44 0 -74 30t-30 74zM24 1408q0 42 30 72t74 30q42 0 72 -30t30 -72q0 -44 -30 -74t-72 -30 q-44 0 -74 30t-30 74zM280 640q0 42 30 72t74 30q42 0 72 -30t30 -72q0 -44 -30 -74t-72 -30q-44 0 -74 30t-30 74zM280 1152q0 42 30 72t74 30q42 0 72 -30t30 -72q0 -44 -30 -74t-72 -30q-44 0 -74 30t-30 74zM536 640q0 42 30 72t74 30q42 0 72 -30t30 -72q0 -44 -30 -74 t-72 -30q-44 0 -74 30t-30 74zM536 1408q0 42 30 72t74 30q42 0 72 -30t30 -72q0 -44 -30 -74t-72 -30q-44 0 -74 30t-30 74zM792 896q0 42 30 72t74 30q42 0 72 -30t30 -72q0 -44 -30 -74t-72 -30q-44 0 -74 30t-30 74zM792 1152q0 42 30 72t74 30q42 0 72 -30t30 -72 q0 -44 -30 -74t-72 -30q-44 0 -74 30t-30 74z" />
<glyph unicode="q" horiz-adv-x="1278" d="M24 896q0 42 30 72t74 30q42 0 72 -30t30 -72q0 -44 -30 -74t-72 -30q-44 0 -74 30t-30 74zM24 1152q0 42 30 72t74 30q42 0 72 -30t30 -72q0 -44 -30 -74t-72 -30q-44 0 -74 30t-30 74zM280 640q0 42 30 72t74 30q42 0 72 -30t30 -72q0 -44 -30 -74t-72 -30 q-44 0 -74 30t-30 74zM280 1408q0 42 30 72t74 30q42 0 72 -30t30 -72q0 -44 -30 -74t-72 -30q-44 0 -74 30t-30 74zM536 640q0 42 30 72t74 30q42 0 72 -30t30 -72q0 -44 -30 -74t-72 -30q-44 0 -74 30t-30 74zM536 1152q0 42 30 72t74 30q42 0 72 -30t30 -72 q0 -44 -30 -74t-72 -30q-44 0 -74 30t-30 74zM792 128q0 42 30 72t74 30q42 0 72 -30t30 -72q0 -44 -30 -74t-72 -30q-44 0 -74 30t-30 74zM792 384q0 42 30 72t74 30q42 0 72 -30t30 -72q0 -44 -30 -74t-72 -30q-44 0 -74 30t-30 74zM792 640q0 42 30 72t74 30q42 0 72 -30 t30 -72q0 -44 -30 -74t-72 -30q-44 0 -74 30t-30 74zM792 896q0 42 30 72t74 30q42 0 72 -30t30 -72q0 -44 -30 -74t-72 -30q-44 0 -74 30t-30 74zM792 1152q0 42 30 72t74 30q42 0 72 -30t30 -72q0 -44 -30 -74t-72 -30q-44 0 -74 30t-30 74zM792 1408q0 42 30 72t74 30 q42 0 72 -30t30 -72q0 -44 -30 -74t-72 -30q-44 0 -74 30t-30 74z" />
<glyph unicode="r" d="M24 128q0 42 30 72t74 30q42 0 72 -30t30 -72q0 -44 -30 -74t-72 -30q-44 0 -74 30t-30 74zM24 384q0 42 30 72t74 30q42 0 72 -30t30 -72q0 -44 -30 -74t-72 -30q-44 0 -74 30t-30 74zM24 640q0 42 30 72t74 30q42 0 72 -30t30 -72q0 -44 -30 -74t-72 -30q-44 0 -74 30 t-30 74zM24 896q0 42 30 72t74 30q42 0 72 -30t30 -72q0 -44 -30 -74t-72 -30q-44 0 -74 30t-30 74zM24 1152q0 42 30 72t74 30q42 0 72 -30t30 -72q0 -44 -30 -74t-72 -30q-44 0 -74 30t-30 74zM280 896q0 42 30 72t74 30q42 0 72 -30t30 -72q0 -44 -30 -74t-72 -30 q-44 0 -74 30t-30 74zM536 1152q0 42 30 72t74 30q42 0 72 -30t30 -72q0 -44 -30 -74t-72 -30q-44 0 -74 30t-30 74zM792 1152q0 42 30 72t74 30q42 0 72 -30t30 -72q0 -44 -30 -74t-72 -30q-44 0 -74 30t-30 74zM1048 896q0 42 30 72t74 30q42 0 72 -30t30 -72 q0 -44 -30 -74t-72 -30q-44 0 -74 30t-30 74z" />
<glyph unicode="s" d="M24 384q0 42 30 72t74 30q42 0 72 -30t30 -72q0 -44 -30 -74t-72 -30q-44 0 -74 30t-30 74zM24 1152q0 42 30 72t74 30q42 0 72 -30t30 -72q0 -44 -30 -74t-72 -30q-44 0 -74 30t-30 74zM24 1408q0 42 30 72t74 30q42 0 72 -30t30 -72q0 -44 -30 -74t-72 -30 q-44 0 -74 30t-30 74zM280 128q0 42 30 72t74 30q42 0 72 -30t30 -72q0 -44 -30 -74t-72 -30q-44 0 -74 30t-30 74zM280 896q0 42 30 72t74 30q42 0 72 -30t30 -72q0 -44 -30 -74t-72 -30q-44 0 -74 30t-30 74zM280 1664q0 42 30 72t74 30q42 0 72 -30t30 -72q0 -44 -30 -74 t-72 -30q-44 0 -74 30t-30 74zM536 128q0 42 30 72t74 30q42 0 72 -30t30 -72q0 -44 -30 -74t-72 -30q-44 0 -74 30t-30 74zM536 896q0 42 30 72t74 30q42 0 72 -30t30 -72q0 -44 -30 -74t-72 -30q-44 0 -74 30t-30 74zM536 1664q0 42 30 72t74 30q42 0 72 -30t30 -72 q0 -44 -30 -74t-72 -30q-44 0 -74 30t-30 74zM792 128q0 42 30 72t74 30q42 0 72 -30t30 -72q0 -44 -30 -74t-72 -30q-44 0 -74 30t-30 74zM792 896q0 42 30 72t74 30q42 0 72 -30t30 -72q0 -44 -30 -74t-72 -30q-44 0 -74 30t-30 74zM792 1664q0 42 30 72t74 30 q42 0 72 -30t30 -72q0 -44 -30 -74t-72 -30q-44 0 -74 30t-30 74zM1048 384q0 42 30 72t74 30q42 0 72 -30t30 -72q0 -44 -30 -74t-72 -30q-44 0 -74 30t-30 74zM1048 640q0 42 30 72t74 30q42 0 72 -30t30 -72q0 -44 -30 -74t-72 -30q-44 0 -74 30t-30 74zM1048 1408 q0 42 30 72t74 30q42 0 72 -30t30 -72q0 -44 -30 -74t-72 -30q-44 0 -74 30t-30 74z" />
<glyph unicode="t" horiz-adv-x="1278" d="M280 1152q0 42 30 72t74 30q42 0 72 -30t30 -72q0 -44 -30 -74t-72 -30q-44 0 -74 30t-30 74zM536 128q0 42 30 72t74 30q42 0 72 -30t30 -72q0 -44 -30 -74t-72 -30q-44 0 -74 30t-30 74zM536 384q0 42 30 72t74 30q42 0 72 -30t30 -72q0 -44 -30 -74t-72 -30 q-44 0 -74 30t-30 74zM536 640q0 42 30 72t74 30q42 0 72 -30t30 -72q0 -44 -30 -74t-72 -30q-44 0 -74 30t-30 74zM536 896q0 42 30 72t74 30q42 0 72 -30t30 -72q0 -44 -30 -74t-72 -30q-44 0 -74 30t-30 74zM536 1152q0 42 30 72t74 30q42 0 72 -30t30 -72q0 -44 -30 -74 t-72 -30q-44 0 -74 30t-30 74zM536 1408q0 42 30 72t74 30q42 0 72 -30t30 -72q0 -44 -30 -74t-72 -30q-44 0 -74 30t-30 74zM792 128q0 42 30 72t74 30q42 0 72 -30t30 -72q0 -44 -30 -74t-72 -30q-44 0 -74 30t-30 74zM792 1152q0 42 30 72t74 30q42 0 72 -30t30 -72 q0 -44 -30 -74t-72 -30q-44 0 -74 30t-30 74z" />
<glyph unicode="u" horiz-adv-x="1278" d="M24 384q0 42 30 72t74 30q42 0 72 -30t30 -72q0 -44 -30 -74t-72 -30q-44 0 -74 30t-30 74zM24 640q0 42 30 72t74 30q42 0 72 -30t30 -72q0 -44 -30 -74t-72 -30q-44 0 -74 30t-30 74zM24 896q0 42 30 72t74 30q42 0 72 -30t30 -72q0 -44 -30 -74t-72 -30q-44 0 -74 30 t-30 74zM24 1152q0 42 30 72t74 30q42 0 72 -30t30 -72q0 -44 -30 -74t-72 -30q-44 0 -74 30t-30 74zM280 128q0 42 30 72t74 30q42 0 72 -30t30 -72q0 -44 -30 -74t-72 -30q-44 0 -74 30t-30 74zM536 384q0 42 30 72t74 30q42 0 72 -30t30 -72q0 -44 -30 -74t-72 -30 q-44 0 -74 30t-30 74zM536 640q0 42 30 72t74 30q42 0 72 -30t30 -72q0 -44 -30 -74t-72 -30q-44 0 -74 30t-30 74zM536 896q0 42 30 72t74 30q42 0 72 -30t30 -72q0 -44 -30 -74t-72 -30q-44 0 -74 30t-30 74zM536 1152q0 42 30 72t74 30q42 0 72 -30t30 -72q0 -44 -30 -74 t-72 -30q-44 0 -74 30t-30 74zM792 128q0 42 30 72t74 30q42 0 72 -30t30 -72q0 -44 -30 -74t-72 -30q-44 0 -74 30t-30 74z" />
<glyph unicode="v" d="M24 640q0 42 30 72t74 30q42 0 72 -30t30 -72q0 -44 -30 -74t-72 -30q-44 0 -74 30t-30 74zM24 896q0 42 30 72t74 30q42 0 72 -30t30 -72q0 -44 -30 -74t-72 -30q-44 0 -74 30t-30 74zM24 1152q0 42 30 72t74 30q42 0 72 -30t30 -72q0 -44 -30 -74t-72 -30q-44 0 -74 30 t-30 74zM280 384q0 42 30 72t74 30q42 0 72 -30t30 -72q0 -44 -30 -74t-72 -30q-44 0 -74 30t-30 74zM536 128q0 42 30 72t74 30q42 0 72 -30t30 -72q0 -44 -30 -74t-72 -30q-44 0 -74 30t-30 74zM792 384q0 42 30 72t74 30q42 0 72 -30t30 -72q0 -44 -30 -74t-72 -30 q-44 0 -74 30t-30 74zM1048 640q0 42 30 72t74 30q42 0 72 -30t30 -72q0 -44 -30 -74t-72 -30q-44 0 -74 30t-30 74zM1048 896q0 42 30 72t74 30q42 0 72 -30t30 -72q0 -44 -30 -74t-72 -30q-44 0 -74 30t-30 74zM1048 1152q0 42 30 72t74 30q42 0 72 -30t30 -72 q0 -44 -30 -74t-72 -30q-44 0 -74 30t-30 74z" />
<glyph unicode="w" d="M24 384q0 42 30 72t74 30q42 0 72 -30t30 -72q0 -44 -30 -74t-72 -30q-44 0 -74 30t-30 74zM24 640q0 42 30 72t74 30q42 0 72 -30t30 -72q0 -44 -30 -74t-72 -30q-44 0 -74 30t-30 74zM24 896q0 42 30 72t74 30q42 0 72 -30t30 -72q0 -44 -30 -74t-72 -30q-44 0 -74 30 t-30 74zM24 1152q0 42 30 72t74 30q42 0 72 -30t30 -72q0 -44 -30 -74t-72 -30q-44 0 -74 30t-30 74zM280 128q0 42 30 72t74 30q42 0 72 -30t30 -72q0 -44 -30 -74t-72 -30q-44 0 -74 30t-30 74zM536 384q0 42 30 72t74 30q42 0 72 -30t30 -72q0 -44 -30 -74t-72 -30 q-44 0 -74 30t-30 74zM536 640q0 42 30 72t74 30q42 0 72 -30t30 -72q0 -44 -30 -74t-72 -30q-44 0 -74 30t-30 74zM536 896q0 42 30 72t74 30q42 0 72 -30t30 -72q0 -44 -30 -74t-72 -30q-44 0 -74 30t-30 74zM536 1152q0 42 30 72t74 30q42 0 72 -30t30 -72q0 -44 -30 -74 t-72 -30q-44 0 -74 30t-30 74zM792 128q0 42 30 72t74 30q42 0 72 -30t30 -72q0 -44 -30 -74t-72 -30q-44 0 -74 30t-30 74zM1048 384q0 42 30 72t74 30q42 0 72 -30t30 -72q0 -44 -30 -74t-72 -30q-44 0 -74 30t-30 74zM1048 640q0 42 30 72t74 30q42 0 72 -30t30 -72 q0 -44 -30 -74t-72 -30q-44 0 -74 30t-30 74zM1048 896q0 42 30 72t74 30q42 0 72 -30t30 -72q0 -44 -30 -74t-72 -30q-44 0 -74 30t-30 74zM1048 1152q0 42 30 72t74 30q42 0 72 -30t30 -72q0 -44 -30 -74t-72 -30q-44 0 -74 30t-30 74z" />
<glyph unicode="x" d="M24 128q0 42 30 72t74 30q42 0 72 -30t30 -72q0 -44 -30 -74t-72 -30q-44 0 -74 30t-30 74zM24 1152q0 42 30 72t74 30q42 0 72 -30t30 -72q0 -44 -30 -74t-72 -30q-44 0 -74 30t-30 74zM280 384q0 42 30 72t74 30q42 0 72 -30t30 -72q0 -44 -30 -74t-72 -30 q-44 0 -74 30t-30 74zM280 896q0 42 30 72t74 30q42 0 72 -30t30 -72q0 -44 -30 -74t-72 -30q-44 0 -74 30t-30 74zM536 640q0 42 30 72t74 30q42 0 72 -30t30 -72q0 -44 -30 -74t-72 -30q-44 0 -74 30t-30 74zM792 384q0 42 30 72t74 30q42 0 72 -30t30 -72q0 -44 -30 -74 t-72 -30q-44 0 -74 30t-30 74zM792 896q0 42 30 72t74 30q42 0 72 -30t30 -72q0 -44 -30 -74t-72 -30q-44 0 -74 30t-30 74zM1048 128q0 42 30 72t74 30q42 0 72 -30t30 -72q0 -44 -30 -74t-72 -30q-44 0 -74 30t-30 74zM1048 1152q0 42 30 72t74 30q42 0 72 -30t30 -72 q0 -44 -30 -74t-72 -30q-44 0 -74 30t-30 74z" />
<glyph unicode="y" horiz-adv-x="1278" d="M24 384q0 42 30 72t74 30q42 0 72 -30t30 -72q0 -44 -30 -74t-72 -30q-44 0 -74 30t-30 74zM24 1408q0 42 30 72t74 30q42 0 72 -30t30 -72q0 -44 -30 -74t-72 -30q-44 0 -74 30t-30 74zM280 128q0 42 30 72t74 30q42 0 72 -30t30 -72q0 -44 -30 -74t-72 -30 q-44 0 -74 30t-30 74zM280 1152q0 42 30 72t74 30q42 0 72 -30t30 -72q0 -44 -30 -74t-72 -30q-44 0 -74 30t-30 74zM536 384q0 42 30 72t74 30q42 0 72 -30t30 -72q0 -44 -30 -74t-72 -30q-44 0 -74 30t-30 74zM536 896q0 42 30 72t74 30q42 0 72 -30t30 -72q0 -44 -30 -74 t-72 -30q-44 0 -74 30t-30 74zM792 640q0 42 30 72t74 30q42 0 72 -30t30 -72q0 -44 -30 -74t-72 -30q-44 0 -74 30t-30 74zM792 896q0 42 30 72t74 30q42 0 72 -30t30 -72q0 -44 -30 -74t-72 -30q-44 0 -74 30t-30 74zM792 1152q0 42 30 72t74 30q42 0 72 -30t30 -72 q0 -44 -30 -74t-72 -30q-44 0 -74 30t-30 74zM792 1408q0 42 30 72t74 30q42 0 72 -30t30 -72q0 -44 -30 -74t-72 -30q-44 0 -74 30t-30 74z" />
<glyph unicode="z" horiz-adv-x="1278" d="M24 128q0 42 30 72t74 30q42 0 72 -30t30 -72q0 -44 -30 -74t-72 -30q-44 0 -74 30t-30 74zM24 896q0 42 30 72t74 30q42 0 72 -30t30 -72q0 -44 -30 -74t-72 -30q-44 0 -74 30t-30 74zM280 128q0 42 30 72t74 30q42 0 72 -30t30 -72q0 -44 -30 -74t-72 -30q-44 0 -74 30 t-30 74zM280 384q0 42 30 72t74 30q42 0 72 -30t30 -72q0 -44 -30 -74t-72 -30q-44 0 -74 30t-30 74zM280 896q0 42 30 72t74 30q42 0 72 -30t30 -72q0 -44 -30 -74t-72 -30q-44 0 -74 30t-30 74zM536 128q0 42 30 72t74 30q42 0 72 -30t30 -72q0 -44 -30 -74t-72 -30 q-44 0 -74 30t-30 74zM536 640q0 42 30 72t74 30q42 0 72 -30t30 -72q0 -44 -30 -74t-72 -30q-44 0 -74 30t-30 74zM536 896q0 42 30 72t74 30q42 0 72 -30t30 -72q0 -44 -30 -74t-72 -30q-44 0 -74 30t-30 74zM792 128q0 42 30 72t74 30q42 0 72 -30t30 -72q0 -44 -30 -74 t-72 -30q-44 0 -74 30t-30 74zM792 896q0 42 30 72t74 30q42 0 72 -30t30 -72q0 -44 -30 -74t-72 -30q-44 0 -74 30t-30 74z" />
<glyph unicode="{" horiz-adv-x="768" d="M24 640q0 42 30 72t74 30q42 0 72 -30t30 -72q0 -44 -30 -74t-72 -30q-44 0 -74 30t-30 74zM280 128q0 42 30 72t74 30q42 0 72 -30t30 -72q0 -44 -30 -74t-72 -30q-44 0 -74 30t-30 74zM280 384q0 42 30 72t74 30q42 0 72 -30t30 -72q0 -44 -30 -74t-72 -30 q-44 0 -74 30t-30 74zM280 896q0 42 30 72t74 30q42 0 72 -30t30 -72q0 -44 -30 -74t-72 -30q-44 0 -74 30t-30 74zM280 1152q0 42 30 72t74 30q42 0 72 -30t30 -72q0 -44 -30 -74t-72 -30q-44 0 -74 30t-30 74zM280 1408q0 42 30 72t74 30q42 0 72 -30t30 -72 q0 -44 -30 -74t-72 -30q-44 0 -74 30t-30 74z" />
<glyph unicode="|" horiz-adv-x="1022" d="M536 128q0 42 30 72t74 30q42 0 72 -30t30 -72q0 -44 -30 -74t-72 -30q-44 0 -74 30t-30 74zM536 384q0 42 30 72t74 30q42 0 72 -30t30 -72q0 -44 -30 -74t-72 -30q-44 0 -74 30t-30 74zM536 640q0 42 30 72t74 30q42 0 72 -30t30 -72q0 -44 -30 -74t-72 -30 q-44 0 -74 30t-30 74zM536 896q0 42 30 72t74 30q42 0 72 -30t30 -72q0 -44 -30 -74t-72 -30q-44 0 -74 30t-30 74zM536 1152q0 42 30 72t74 30q42 0 72 -30t30 -72q0 -44 -30 -74t-72 -30q-44 0 -74 30t-30 74zM536 1408q0 42 30 72t74 30q42 0 72 -30t30 -72 q0 -44 -30 -74t-72 -30q-44 0 -74 30t-30 74z" />
<glyph unicode="}" horiz-adv-x="768" d="M24 128q0 42 30 72t74 30q42 0 72 -30t30 -72q0 -44 -30 -74t-72 -30q-44 0 -74 30t-30 74zM24 384q0 42 30 72t74 30q42 0 72 -30t30 -72q0 -44 -30 -74t-72 -30q-44 0 -74 30t-30 74zM24 896q0 42 30 72t74 30q42 0 72 -30t30 -72q0 -44 -30 -74t-72 -30q-44 0 -74 30 t-30 74zM24 1152q0 42 30 72t74 30q42 0 72 -30t30 -72q0 -44 -30 -74t-72 -30q-44 0 -74 30t-30 74zM24 1408q0 42 30 72t74 30q42 0 72 -30t30 -72q0 -44 -30 -74t-72 -30q-44 0 -74 30t-30 74zM280 640q0 42 30 72t74 30q42 0 72 -30t30 -72q0 -44 -30 -74t-72 -30 q-44 0 -74 30t-30 74z" />
<glyph unicode="~" d="M24 896q0 42 30 72t74 30q42 0 72 -30t30 -72q0 -44 -30 -74t-72 -30q-44 0 -74 30t-30 74zM280 1152q0 42 30 72t74 30q42 0 72 -30t30 -72q0 -44 -30 -74t-72 -30q-44 0 -74 30t-30 74zM536 896q0 42 30 72t74 30q42 0 72 -30t30 -72q0 -44 -30 -74t-72 -30 q-44 0 -74 30t-30 74zM792 1152q0 42 30 72t74 30q42 0 72 -30t30 -72q0 -44 -30 -74t-72 -30q-44 0 -74 30t-30 74zM1048 896q0 42 30 72t74 30q42 0 72 -30t30 -72q0 -44 -30 -74t-72 -30q-44 0 -74 30t-30 74z" />
<glyph unicode="&#xad;" d="M24 896q0 42 30 72t74 30q42 0 72 -30t30 -72q0 -44 -30 -74t-72 -30q-44 0 -74 30t-30 74zM280 896q0 42 30 72t74 30q42 0 72 -30t30 -72q0 -44 -30 -74t-72 -30q-44 0 -74 30t-30 74zM536 896q0 42 30 72t74 30q42 0 72 -30t30 -72q0 -44 -30 -74t-72 -30 q-44 0 -74 30t-30 74zM792 896q0 42 30 72t74 30q42 0 72 -30t30 -72q0 -44 -30 -74t-72 -30q-44 0 -74 30t-30 74zM1048 896q0 42 30 72t74 30q42 0 72 -30t30 -72q0 -44 -30 -74t-72 -30q-44 0 -74 30t-30 74z" />
<glyph unicode="&#x2000;" horiz-adv-x="1011" />
<glyph unicode="&#x2001;" horiz-adv-x="2022" />
<glyph unicode="&#x2002;" horiz-adv-x="1011" />
<glyph unicode="&#x2003;" horiz-adv-x="2022" />
<glyph unicode="&#x2004;" horiz-adv-x="674" />
<glyph unicode="&#x2005;" horiz-adv-x="505" />
<glyph unicode="&#x2006;" horiz-adv-x="337" />
<glyph unicode="&#x2007;" horiz-adv-x="337" />
<glyph unicode="&#x2008;" horiz-adv-x="252" />
<glyph unicode="&#x2009;" horiz-adv-x="404" />
<glyph unicode="&#x200a;" horiz-adv-x="112" />
<glyph unicode="&#x2010;" d="M24 896q0 42 30 72t74 30q42 0 72 -30t30 -72q0 -44 -30 -74t-72 -30q-44 0 -74 30t-30 74zM280 896q0 42 30 72t74 30q42 0 72 -30t30 -72q0 -44 -30 -74t-72 -30q-44 0 -74 30t-30 74zM536 896q0 42 30 72t74 30q42 0 72 -30t30 -72q0 -44 -30 -74t-72 -30 q-44 0 -74 30t-30 74zM792 896q0 42 30 72t74 30q42 0 72 -30t30 -72q0 -44 -30 -74t-72 -30q-44 0 -74 30t-30 74zM1048 896q0 42 30 72t74 30q42 0 72 -30t30 -72q0 -44 -30 -74t-72 -30q-44 0 -74 30t-30 74z" />
<glyph unicode="&#x2011;" d="M24 896q0 42 30 72t74 30q42 0 72 -30t30 -72q0 -44 -30 -74t-72 -30q-44 0 -74 30t-30 74zM280 896q0 42 30 72t74 30q42 0 72 -30t30 -72q0 -44 -30 -74t-72 -30q-44 0 -74 30t-30 74zM536 896q0 42 30 72t74 30q42 0 72 -30t30 -72q0 -44 -30 -74t-72 -30 q-44 0 -74 30t-30 74zM792 896q0 42 30 72t74 30q42 0 72 -30t30 -72q0 -44 -30 -74t-72 -30q-44 0 -74 30t-30 74zM1048 896q0 42 30 72t74 30q42 0 72 -30t30 -72q0 -44 -30 -74t-72 -30q-44 0 -74 30t-30 74z" />
<glyph unicode="&#x2012;" d="M24 896q0 42 30 72t74 30q42 0 72 -30t30 -72q0 -44 -30 -74t-72 -30q-44 0 -74 30t-30 74zM280 896q0 42 30 72t74 30q42 0 72 -30t30 -72q0 -44 -30 -74t-72 -30q-44 0 -74 30t-30 74zM536 896q0 42 30 72t74 30q42 0 72 -30t30 -72q0 -44 -30 -74t-72 -30 q-44 0 -74 30t-30 74zM792 896q0 42 30 72t74 30q42 0 72 -30t30 -72q0 -44 -30 -74t-72 -30q-44 0 -74 30t-30 74zM1048 896q0 42 30 72t74 30q42 0 72 -30t30 -72q0 -44 -30 -74t-72 -30q-44 0 -74 30t-30 74z" />
<glyph unicode="&#x2013;" horiz-adv-x="1328" d="M24 896q0 42 25 72t62 30q35 0 60 -30q24 -30 24 -72q0 -44 -24 -74q-25 -30 -60 -30q-37 0 -62 30t-25 74zM237 896q0 42 25 72t62 30q35 0 60 -30t25 -72q0 -44 -25 -74t-60 -30q-37 0 -62 30t-25 74zM450 896q0 42 25 72t62 30q35 0 60 -30t25 -72q0 -44 -25 -74 t-60 -30q-37 0 -62 30t-25 74zM663 896q0 42 25 72t62 30q35 0 60 -30t25 -72q0 -44 -25 -74t-60 -30q-37 0 -62 30t-25 74zM877 896q0 42 24 72q25 30 62 30q35 0 60 -30t25 -72q0 -44 -25 -74t-60 -30q-37 0 -62 30q-24 30 -24 74z" />
<glyph unicode="&#x2014;" horiz-adv-x="2352" d="M24 896q0 42 50 72t123 30q70 0 120 -30t50 -72q0 -44 -50 -74t-120 -30q-73 0 -123 30t-50 74zM450 896q0 42 50 72t123 30q70 0 120 -30t50 -72q0 -44 -50 -74t-120 -30q-73 0 -123 30t-50 74zM877 896q0 42 49 72q50 30 124 30q70 0 120 -30q49 -30 49 -72 q0 -44 -49 -74q-50 -30 -120 -30q-74 0 -124 30q-49 30 -49 74zM1303 896q0 42 50 72t123 30q70 0 120 -30t50 -72q0 -44 -50 -74t-120 -30q-73 0 -123 30t-50 74zM1729 896q0 42 50 72t123 30q70 0 120 -30t50 -72q0 -44 -50 -74t-120 -30q-73 0 -123 30t-50 74z" />
<glyph unicode="&#x2018;" horiz-adv-x="1278" d="M536 896q0 42 30 72t74 30q42 0 72 -30t30 -72q0 -44 -30 -74t-72 -30q-44 0 -74 30t-30 74zM792 640q0 42 30 72t74 30q42 0 72 -30t30 -72q0 -44 -30 -74t-72 -30q-44 0 -74 30t-30 74z" />
<glyph unicode="&#x2019;" horiz-adv-x="1278" d="M536 640q0 42 30 72t74 30q42 0 72 -30t30 -72q0 -44 -30 -74t-72 -30q-44 0 -74 30t-30 74zM792 896q0 42 30 72t74 30q42 0 72 -30t30 -72q0 -44 -30 -74t-72 -30q-44 0 -74 30t-30 74z" />
<glyph unicode="&#x201c;" horiz-adv-x="1790" d="M280 896q0 42 30 72t74 30q42 0 72 -30t30 -72q0 -44 -30 -74t-72 -30q-44 0 -74 30t-30 74zM536 640q0 42 30 72t74 30q42 0 72 -30t30 -72q0 -44 -30 -74t-72 -30q-44 0 -74 30t-30 74zM1048 896q0 42 30 72t74 30q42 0 72 -30t30 -72q0 -44 -30 -74t-72 -30 q-44 0 -74 30t-30 74zM1304 640q0 42 30 72t74 30q42 0 72 -30t30 -72q0 -44 -30 -74t-72 -30q-44 0 -74 30t-30 74z" />
<glyph unicode="&#x201d;" horiz-adv-x="1790" d="M280 640q0 42 30 72t74 30q42 0 72 -30t30 -72q0 -44 -30 -74t-72 -30q-44 0 -74 30t-30 74zM536 896q0 42 30 72t74 30q42 0 72 -30t30 -72q0 -44 -30 -74t-72 -30q-44 0 -74 30t-30 74zM1048 640q0 42 30 72t74 30q42 0 72 -30t30 -72q0 -44 -30 -74t-72 -30 q-44 0 -74 30t-30 74zM1304 896q0 42 30 72t74 30q42 0 72 -30t30 -72q0 -44 -30 -74t-72 -30q-44 0 -74 30t-30 74z" />
<glyph unicode="&#x202f;" horiz-adv-x="404" />
<glyph unicode="&#x205f;" horiz-adv-x="505" />
<glyph unicode="&#x25fc;" horiz-adv-x="1250" d="M0 0v1250h1250v-1250h-1250z" />
</font>
</defs>
</svg>
